<svg width="1440" height="344" fill="none" xmlns="http://www.w3.org/2000/svg"><path d="M2063.2 43.3c-15.2 13.2-30 26.9-45.9 39.2a197.4 197.4 0 01-56 31.4c-14.6 5-28.3 1.4-41.8-4.3-6.7-2.9-13.2-6.3-20-9a29.6 29.6 0 00-22.3-.2 42 42 0 01-27.3 2.8c-6.6-2-12.6-5.2-15.7-12.1-2.7-6.1-2.3-10 2.3-14.5a45 45 0 018-6.3c12-7 17.4-17.8 18.5-31.4 1.1-14.3 2.2-28.7 4.3-43 1.7-11.9 5-23.6 7.6-35.4 2-8.8.7-17.6-2-26-4.8-15.6-17.1-23.7-31.2-30-20.9-9.2-42.7-16.4-62.3-28.7a1904.8 1904.8 0 00-50.3-30.2c-7.5-4.4-15.4-8-23-12.1-15.4-8.5-19.1-18.6-17.8-30.2 1.7-14 10.9-21.8 26.4-25.7 12.3-3 25.1-4.6 35.6-13 12.3-9.7 20.5-21.4 16.7-37.8a39 39 0 00-8.1-16.4 133.8 133.8 0 01-28-52c-4.6-16.3-16-25-32.9-28a90.5 90.5 0 00-42.4 1.6c-21.6 6.6-30.9 23.4-33.5 44.5-1.5 12-2 24-2.4 36-.7 16.6-7 31.2-16.3 44.5a213 213 0 00-24.5 44.4 73.8 73.8 0 00-6.1 35c1.3 11.5 7.7 19 18.3 23.5 14.8 6.3 30.4 7.8 46 10.5 10.8 1.8 21.7 3.5 32.4 6.2 12.4 3 19 12.4 21.8 24.2a119.8 119.8 0 0027.9 56.7c7.8 8.4 14.9 17.6 21.5 27 6.8 9.7 12.5 20 18.7 30 .7 1.3 1.4 2.6 1.8 3.9 4.3 15-1.6 23.6-17 25.8-13.8 2-27.4 1-41.1 1.2-15.7.3-31.2 2.7-42.7 15.7a2202.5 2202.5 0 01-41 44.9c-14 15-26.2 31-35 49.6-3.7 8-6 16.5-9.2 24.7-4.8 12.1-8.7 24.6-18.7 34a74.2 74.2 0 01-25.8 15.8 125.1 125.1 0 00-46.6 32.3c-13.1 13.4-26.2 27.1-42.8 36.2-15 8-30.1 16.1-45.9 22.4a96.6 96.6 0 00-55.6 52.9 170.5 170.5 0 01-23.8 42 239.1 239.1 0 01-20.3 21.4 47.7 47.7 0 00-15 43.8c2 16.4 8.3 31.2 14.6 46.1 3.2 7.7 5.8 15.8 9.7 23a41.8 41.8 0 0027.4 20.3c19.2 5.2 38.4 11 58 15a110 110 0 0032.4 1.3A43.4 43.4 0 001462 548c1.8-14.8 2.3-29.9 7.8-44.3a72.4 72.4 0 0126.9-35.5c17-11.5 34.8-22 51.7-33.6 13-9 24.8-19.6 37.8-28.7 12.8-8.9 27.8-10.8 43.1-10.8 16 0 32.2.2 47.2-5.4 21.4-7.9 30-25.6 32.8-47 1.6-11.7 3.1-23.6 6-35 3.4-13.9 14.4-20.1 27.3-23 16.7-3.7 33.4-.3 50.1 1a193 193 0 0049.8-1.3 56.6 56.6 0 0047.2-40c5-15.2 11.6-30 21.6-42.6a80.7 80.7 0 0140.3-28.7 51.9 51.9 0 0130.6 1.8c14 4.2 28.1 8.4 42 13 16.6 5.5 33 11.2 49.4 16.9l9.9 3.5M832.2 888.6a532.5 532.5 0 0034.5-69.8c4.7-11.5 9.7-23 11.5-35.7a60.5 60.5 0 00-6.2-37c-5.8-11.3-12.6-22.2-18.1-33.6-6.7-13.9-13.1-28-18.7-42.3-6-15.4-12.6-30.6-22.6-43.7-16-20.9-15.7-41.7-3-63.9 12.2-21.2 23.4-43 35.4-64.3 5.1-8.9 10.9-17.5 17.1-25.7 10.7-14 17.5-29.5 21.2-46.5a32.2 32.2 0 0121.8-25.2c10.3-3.8 20.8-7.3 29.3-14.8a51.3 51.3 0 0018.5-36.7c.8-14.7-4.1-28.4-6.3-42.5a72 72 0 015.9-42.6c6.7-14 14-27.8 19.6-42.3 7.8-20 2.4-32.2-12.1-44.2-6.5-5.5-13.8-10-20.7-15.1-19.6-14.3-33.1-33.8-46.5-53.6-9.7-14.2-19-28.8-31.8-40.8a31 31 0 00-32-6.7c-15 6.3-29.9 13-44.8 19.6-23.6 10.5-42.1 2.7-56.9-12.6-8-8.3-16-16.7-26.3-22.5-13.9-7.7-35.2-2.6-45 9.5a86.4 86.4 0 00-17.2 38.2 112.8 112.8 0 01-21.3 47.1 123 123 0 00-9.1 14c-9.7 16.8-2.5 38.6 15.5 49.3a471.9 471.9 0 0161.9 41.6c9.7 8 20.8 14.3 30.8 22a82.4 82.4 0 0132.8 52c1.4 8 3 16.3 2.8 24.5-.3 11.3-6.6 19.8-15.2 27-14.2 12-28.5 24-38.4 39.8-11.7 18.9-23.2 38-34 57.5-9.9 17.7-18.4 36.1-28 54a94.2 94.2 0 01-52.7 43.3c-19.3 7.2-39.3 12.4-59 18.4-15.3 4.6-30.4 9.3-45.7 13.6a836.7 836.7 0 01-39.9 10.3c-21.6 5-43.3 9.5-63.8 18.6-17 7.6-35 7-52.9 4S287 624.1 269 622c-11.2-1.3-22.6 0-33.8-.9-14-1.2-28.1-2.6-41.8-5.7-25.1-5.7-50-12.2-76-12.8-11.4-.2-23-.4-34.5-1.2a35.4 35.4 0 01-25.3-14.3 22.4 22.4 0 01-.6-25.6c6.5-9.3 15.3-16 24.3-22.5 11.5-8.3 23.7-15.6 33.2-26.4 5.9-6.7 12.1-13 17.8-19.8a47.5 47.5 0 0129.6-17.4c8.8-1.4 18 .5 27 .3 15.7-.3 31.5-.4 47-1.9a609 609 0 0153-2.7c14-.1 29.4.1 40.3-12 3.6-4 7.8-8 9.8-12.7 7.4-17.8 21.8-28.3 37.5-37.5a372 372 0 0131.6-17.3c15.6-7.3 32.2-7.7 49.1-6.3 13.2 1 26.7 2.4 39.4-3.4 18.1-8.3 27.2-23.7 32.6-41.8 2.2-7.5 2.2-14.9-4.5-20.3-3-2.5-6.5-5-10.2-6.1-11.8-3.9-23.8-7-35.7-10.6a69.7 69.7 0 01-49.1-48.6 154.5 154.5 0 01-4.9-48.7c.5-27.4-5.2-53.7-18.3-78A508 508 0 00384.2 90c-10.5-16-25-25.4-45.2-22.8-20.6 2.6-41.4 4-61.8 8-14.6 2.8-28.5 9-42.8 13.6a108 108 0 01-37.2 5.5c-11-.5-22 0-32.9 1.3-10.2 1.4-20 4.9-30.2 6.8-11.4 2.2-22.9 5-34.4 5.4-15.8.5-31.3 2-46.5 6-10.3 2.6-20.6 4.8-30.9 7.2-1.5.4-3.2.5-4.5 1.3-15.5 9.2-16.9 16.5-5.2 33.6 5.8 8.5 12 16.5 15.3 26.5 4.9 14.8-2.5 27-13.5 32.8a56.8 56.8 0 01-41.4 3.4c-13.4-3.4-26.2-9.2-39.6-13a95.6 95.6 0 00-26.7-4c-20.7.4-39.8 7.1-58 16.9-7.3 3.9-9.4 9-8.8 16.7.6 8.3.7 16.7.4 25-.7 15-7.9 27.3-17.4 38.6-4.5 5.3-9 10.7-12.8 16.4a62.1 62.1 0 01-21.1 21.4c-11.7 6.4-24 3.6-34.4-2.1a167 167 0 01-29.8-21.8c-22-19-43.8-18.9-65 4.9-12 13.6-22.9 28.5-34.7 42.5-9.1 10.9-19 21-32.3 27a39 39 0 01-39.5-2.6c-10-6.6-19.6-14-29.6-20.5-3.7-2.4-8-3.6-12-5.4" stroke="#272A3E" stroke-width="2" stroke-miterlimit="10" stroke-linecap="round" stroke-linejoin="round"/><path d="M-555.7-188.6c29-2.3 55.9 5 80 20.8 15.9 10.2 30.1 23 45.6 33.9 19.6 13.7 39.8 26.5 59.5 40 9 6.2 18 12.5 26 19.9 11.6 11 11.5 25 7 39.5-2.5 8.6-5.4 17.5-6 26.4-.8 12.9 6.9 23 16 30.9 17.3 15.1 36.9 26.2 60.6 28.5a61.4 61.4 0 0045.3-15.2c8.8-7 16.3-15.4 25-22.4 10.2-8 21.8-13.4 35.2-9.8 14.3 3.9 25.3 11.9 29.5 26.7 2.4 8.4-.4 16.6-2.9 24.7-3.7 11.9-8.3 23.6-11 35.8-4.2 20.1-1.8 40.1 5.3 59.3 5 13.7 16.5 20.6 30.3 21.7 14.5 1.2 29.2.6 43.8.1 4.6-.1 9.2-2 13.7-3.6 5.5-1.9 8.7-6 9.3-11.9a645 645 0 002.4-24.6c1.6-22.2 14.6-34.7 34.8-41.4 16-5.4 31.9-11 47.9-16.7a95.5 95.5 0 0146.8-3.7 936 936 0 0037 4.8c4.9.6 10 .3 14.9.3 16.1-.1 32.4-1.5 48.5-.3 18.2 1.4 35.1-1.6 51.6-8.7A282.7 282.7 0 01299 49c11.3-2.2 22-6.8 33.3-9.2 28.7-6.2 56.7-1.1 72.4 30.8 8 16.2 13.8 33.4 20.5 50 5 12 10.6 23.8 14.4 36.2 3.5 11.4 5.2 23.3 5.8 35.7.8 18.2-.6 37 7.6 54.3 5.3 11.4 14 19 25.7 24 15 6.3 30.6 7.6 46.4 8.3 19.2.8 38.6-1 57.7 3.2 6 1.3 12 3.3 17.6 5.9 14.6 6.9 15.3 21.6 8 33.3a76.6 76.6 0 01-24.6 24 147.3 147.3 0 00-41 40.1 62.4 62.4 0 01-22.4 20.8 370.4 370.4 0 01-35.9 15.3c-17.3 6.4-35.9 9.4-52.4 18.6a43.2 43.2 0 00-23.1 35.4c-2 20-3.2 40-5 60-1 12.1 1.4 23.1 10.8 31.7 7.8 7 17.6 9.5 27.6 10.7 14.5 1.8 28.6 0 42.8-3.7 11.8-3 24.1-4.7 36.1-7.3 21.6-4.7 43.8-7.4 64.1-16.6a82.3 82.3 0 0043.2-45c9.7-23.2 20.3-45.9 30.6-68.7 7.4-16.3 14.4-32.7 22.6-48.5 4.5-8.8 11-16.6 17-24.5 6.3-8 14.2-14.9 17.2-25.1 5.2-18.2-5.1-34.8-18.8-42.2-10.5-5.6-21.6-10.2-32.2-15.7a258 258 0 01-24-14c-13-8.7-26.2-17.1-38.2-27.1-9.8-8.1-18.2-18-26.5-27.7-5.6-6.7-9.8-14.5-15-21.7-7.4-10.3-5.4-20.2 2-29.1a513.4 513.4 0 0132-36.3 100.9 100.9 0 0024.7-45c5.4-18.9 12.6-36.6 27.6-50 20.6-18.3 49.7-23.5 73-4.2 8.6 7 16.8 14.4 25 21.8 12.5 11.3 32 12.4 48 1.4 12.6-8.7 24.5-18.5 36.5-28 10-8 17.6-6.7 25.7-.6 7.8 6 12.8 13.8 18 21.6 15 23 29.5 46.3 44.4 69.4 12.9 20 30 35 50.8 46.6 9 5 17.5 11 25 17.8 10.7 9.8 12.9 22.6 7.9 36-4.2 11.2-9.5 22-14.8 32.9a127.3 127.3 0 00-14.2 41.6 102 102 0 000 17.5c1.1 15.6 3.9 31.2 3.4 46.8-.8 23.3-12 42.4-29 58.3-9.6 9-19.2 18.2-28.1 27.9-5.6 6-9.4 13.5-14.7 19.8-8.8 10.4-17.4 21-27.4 30.2-19 17.7-29.1 40-36.5 64.1-2 6.8-4.2 13.6-6.3 20.3a61.2 61.2 0 009.3 52.9c9.1 14.2 18.9 28 27.2 42.6 4.9 8.6 7.7 18.3 11 27.6 5.5 15.5 10.7 31 16 46.6 4.4 13.5 8.6 27.1 7.1 41.7A59 59 0 01894 810c-12.9 18.9-21.4 39.8-30.2 60.6-2 4.7-3.3 9.8-5 14.7" stroke="#272A3E" stroke-width="2" stroke-miterlimit="10" stroke-linecap="round" stroke-linejoin="round"/><path d="M-471.1 498.9a66.2 66.2 0 0145.9 12c8 5.8 15.3 13 22 20.3 5.3 5.7 7 13.5 8.2 21.1l5.9 37c3 19.2 18.2 30.8 37 32.7 9.4.9 19 1.3 28.1 3.4 13.9 3.1 24 12.5 33.3 22.7 9.3 10 18.7 20 28.6 29.5 19.5 18.9 44.2 25.3 70.2 28.7a82.7 82.7 0 0136 10.8c9 5.9 15 14 20.7 22.6 4 5.8 6.7 12.4 10.5 18.2 7.4 11.3 14 12.7 25.6 5.7 17.6-10.6 33-23.7 47.3-38.3A302.3 302.3 0 01-6 686.6c10.2-7 20-14.3 29.7-21.9 15.4-12.2 15.6-20.1 5.3-37.6a69 69 0 00-53.3-35.6c-24.7-3-49.2-8-73.8-12.3a86.8 86.8 0 01-32.5-13c-12.7-8.3-24.6-17.8-36.5-27.1-11.2-8.7-14.3-21-12.9-34.1 2-18.5 5.2-36.9 15-53.2 2.3-4 4.8-7.9 8-11 7.6-7.4 14.6-8.3 24.5-3 9.2 4.7 17.8 10.7 27 15.3a145.6 145.6 0 0052.9 13.3c7.3.7 15 1.1 21.9 3.5a47.5 47.5 0 0125.5 19.6c4 6.4 8.7 12.4 13 18.6 9.4 13.3 22.1 16.4 38 12.5A123 123 0 0085.7 504a111 111 0 0025.4-24 67 67 0 0130.2-23.3c11.2-3.8 22.8-2.6 34.3-1.6 17 1.6 34.3 4 51.4 1 18.4-3.4 37.1-6.7 54-15.4a47 47 0 0019.7-21.3c9.2-17.7 18.6-35.3 27.1-53.3 6.4-13.5 15.8-21 31.2-22.2 17.1-1.2 34.1-4 51.2-6l3.3-.5c15.7-2.6 20.9-10.5 15.7-25.5-4-11.5-9.4-22.6-13.5-34.2a186 186 0 01-9.9-63.5c0-38.1-10.4-72.8-35-102.2A54 54 0 00323 91.7c-25.8 1.6-50.3 7-74.3 16.2a216.2 216.2 0 01-61.1 13 56.7 56.7 0 00-40.5 21.9c-12.7 15.3-24.9 31-37.6 46.4A163.3 163.3 0 0168 222.9c-22.1 13.7-46.8 21-70.5 30.7a43.7 43.7 0 00-25 22c-4.1 9-8.2 18-12.2 27.2a94.3 94.3 0 01-66.6 56.7c-10.9 2.6-22 4.1-32.8 7-6 1.5-11.7 4.7-17.4 7.3-4.3 2-8.4 4.4-12.7 6.3-14.6 6.2-29.2 3.2-43.3-1.5-24.7-8.1-46.5-22-68.6-35.3-10-6-20.2-10.5-32.7-8.4a43 43 0 00-25.6 15.7c-13.4 15.5-26 31.8-38.8 47.8-8 10-17.1 19-28 25.5a92.3 92.3 0 01-30.8 11.7c-13.8 2.6-27.7 2.2-41.5 3.5M1015.5-589.8a77 77 0 0037.8 27 555.4 555.4 0 0043 15c22.7 6.7 37.3 22.2 48.3 42 7.7 14.1 15.9 28.2 31.4 34.4 9.7 3.8 20.6 5 31 6.5 15.9 2.2 31.4 4.8 43.9 16.2A78 78 0 011276-403a181 181 0 011.5 44.4c-.4 5.5.3 11.1.7 16.7.8 11.3-2.6 14.8-13.9 13.9-17.8-1.5-35-6-52-11.1-19.8-6-39.5-12.3-59.5-17.6-16.6-4.3-31-.1-39.8 15.7-3 5.4-5 11.6-6.6 17.6-6.4 24.2-4.1 48.6-.6 73 1.5 10.3 3.8 20.7 4.3 31.1.8 14.8-6.3 27.3-13.8 39.5-6.9 11.2-15.5 21.6-18.6 34.7-2.6 10.7-5.5 21.6-6 32.5-.5 13.6.5 27.4 2.3 40.8a74.6 74.6 0 0038 58.2c8.8 5.1 17 11.6 25.8 17 12.7 7.7 27.4 10.5 41.5 14.5 12.7 3.7 25.2 7.8 34.7 18 19.7 21.2 16.6 57.4-11.7 69.8-18.5 8.2-35.1 8-51.3-4.7-1.4-1.1-3.5-1.6-5-2.8-16.2-12.5-25.7-2-28.6 13-1.8 10.1-1.7 20.5-2.5 30.7-1 12.9-4.5 25-9.3 37-3.6 9-6.1 18.9-6.4 28.4a41.8 41.8 0 006.3 20.7c13 22.7 26.6 45 43.7 64.8a117.8 117.8 0 0042.6 29.3c20.4 9 39 21.1 57.5 33.3 12.9 8.5 16.8 19.8 13.5 34.2-3.1 14.1-6.3 28.3-9.6 42.4a131 131 0 002.4 63.8c3 11.3 6.2 22.6 8.1 34 2.5 14.7-.3 29.3-3.3 43.7-1 5.1-2.8 10.2-4 15.4-4.7 18.7-17.6 29.7-34.8 35.8-25.7 9.1-46.5 25.2-65.4 44-14.7 14.6-28.5 30-43.3 44.3a84 84 0 01-42.3 22.8c-11.4 2.3-23 3.4-34.4 5.8-9.6 2-19.7 3-27 11.2-8.9 10-13 21.1-12 34.6.8 11.7 5.3 22.1 9.6 32.5 6.2 14.9 7.7 30.5 9.6 46.2" stroke="#272A3E" stroke-width="2" stroke-miterlimit="10" stroke-linecap="round" stroke-linejoin="round"/><path d="M135.1-482.1c-1.2 14.2-3.2 28.4 0 42.5 1.6 7.5 3.2 15.1 6 22.2 8.6 20.9 17.7 41.5 26.4 62.3a74.3 74.3 0 0021.4 28.9 86 86 0 0127.5 46.7c5.2 19.8 18.5 27.8 37.1 30.7 9 1.3 18 3.1 26.4 6.2 14.3 5.3 21.9 17.5 27.4 31a219.8 219.8 0 0035.9 61.7A76.7 76.7 0 01363-99l-.1 32.4c-.2 12.5 9.4 25.5 21.7 27.6 11 1.9 22.4 2.3 33.5 4.2 15 2.4 30 6 45 8.4 15.6 2.6 31 2.6 46-3.5 8.2-3.3 11.8-9 12.1-17.7.3-7.5 1.3-15 2-22.5 1.9-25.9 25-45 48.5-49.4 18.7-3.4 34.8 3.3 50.5 11 25 12.3 51.4 20 78.3 25.9 22.4 5 38.6 16.5 45.1 39.1 3.5 12.3 1.4 24.4-15.7 24.9-10.5.2-21.1.7-31.6.4a81.4 81.4 0 00-30.4 6 148.2 148.2 0 00-42.4 22.7A56 56 0 00607 40.9c-3.5 13.4-6.5 27-11.4 39.8-7.8 20.6-23 35.7-40.5 48.2-19.6 13.8-39.8 26.7-59.9 39.8-5.3 3.6-14.2 2-18.5-3.8a220.6 220.6 0 01-17.5-26.9 350 350 0 01-19.9-42.7c-3.8-10.4-4.3-22-6.4-33-2.4-12.5-6.5-24.5-17-32.9a244.6 244.6 0 00-23.7-17.2c-9.3-5.7-19-10.7-28.8-15.4-15.3-7.3-30-7.8-44.2 3.2-10.4 8-20.9 16.2-32.4 22a898.6 898.6 0 01-65.2 29.7c-11.6 4.8-24.3 3.7-36.8 2.2-23.4-2.8-47-4.3-70.4-8-14-2.2-27.7-7-41.3-11.6-14.6-5-28.7-12.7-44.7-11.7-8.8.6-17.6 3.6-26.2 5.8-3.8 1-8 4.5-11.2 1.1-3.4-3.7 0-8.2 1.7-12.2C5.8-12.3 29-32.9 54.4-51.7c12.9-9.5 26.2-18.8 41.7-23 18.6-5.2 28.4-5.8 40 10.8 3.8 5.5 9.6 9.8 15 13.7 6.5 4.6 23 1.8 28.5-4 10.7-11.3 10-21-2.5-30.7a72.6 72.6 0 00-15.4-9.5 31.6 31.6 0 01-18.9-22.1c-6.3-22.8-18.8-42.2-33-60.8a181.2 181.2 0 01-27.1-51.4 250.7 250.7 0 01-8-31.3c-2-10.1-7.7-17.9-14.7-24.4-18.9-17.8-38-35.4-57.7-52.3-8.8-7.6-19.6-13-28.6-20.4a499 499 0 01-31.3-29.1c-6.1-6.1-8-14-7.7-22.7.5-13.7.3-27.4.5-41.2 0-2.5.2-5 .4-7.4M1095 423.7c-3-1.7-6.7-2.7-8.6-5.1-9.9-12.4-12.1-27.2-3.8-40.6 4.6-7.2 9.6-14.2 15-20.7 11.2-13.7 12.4-28.4 7.5-45a78.4 78.4 0 00-20.4-37.1 71.2 71.2 0 00-17.9-13.2c-17.5-8-28.5-.5-36 14.3a87.6 87.6 0 00-8.2 47c.9 11 2.1 22.2 4.1 33.2 3.8 20.5-.3 37.8-17.3 51.5a589 589 0 00-43.2 37.8A208.5 208.5 0 00940 478c-7 10.3-14.8 19.4-23.8 27.8-7.8 7.3-15.8 14.4-22.8 22.4a45.2 45.2 0 00-9.8 34.2 36.3 36.3 0 0024.6 32 90.5 90.5 0 0149.8 41.8c3.2 6 8 11.1 12.7 16 8 8.1 19.1 10.1 29.7 11 16.2 1.3 31.7 5 46.5 11.4 22.5 9.7 42 3.4 60.1-10.8a182.4 182.4 0 0036-36.8c11.5-16 27.3-27.4 42.3-39.7a55.6 55.6 0 0020.2-51.7c-1.4-14.4-7.3-27.5-11.3-41.1a179.3 179.3 0 01-6.8-47.8c-.2-16.7-1.4-33.5-3.4-50.2a30.5 30.5 0 00-26.6-25.7c-8.6-1.3-14 4.6-19.7 9.3-2.7 2.2-4.3 5.8-6.4 8.7-10 13.4-20 27-35.6 34.8" stroke="#272A3E" stroke-width="2" stroke-miterlimit="10" stroke-linecap="round" stroke-linejoin="round"/><path d="M-41.3-319.4c-15.1 5.6-22.5 16.7-22.1 33.8.2 10.5 1.3 21 1 31.6a46.7 46.7 0 01-22 39.3c-10 6.8-19.6 14.6-29 22.4a73 73 0 00-25.6 44.2c-4.3 23.5-9.5 46.9-12.6 70.5-2.4 17.4 7.3 26.4 19.2 32 5.6 2.6 11.2 5.2 17 7.3a73.4 73.4 0 0127.4 19 34.6 34.6 0 0028.3 11 58 58 0 0022.6-7.4c25-14.7 50.1-29.2 74-45.6a455.3 455.3 0 0054.5-43.9c15.7-14.8 16.8-28.9 7.5-50.5-3.4-7.9-8-15.3-12.2-22.8-10.2-18-20.9-35.6-30.8-53.6a374.8 374.8 0 00-54.7-69.4 60.2 60.2 0 00-41.8-18M1095.2 30.8c-1.5-11.3-9-19.2-16.3-27a76.8 76.8 0 01-18.6-40.9c-2.8-15.9-7.2-31.5-11-47.2-4.2-17.3-17.2-23.8-33-26.3-13.3-2-26.8-4-40.3-4.3a102 102 0 00-36.2 7.5c-10.2 3.7-20.8 6.5-31.1 10-10.7 3.6-19.2 8.8-20.5 22-1.6 16-5 31.7-7.4 47.6a91 91 0 008.2 50.2 390.5 390.5 0 0053.4 87.2c12.5 16 30 25.7 48.5 33.2 16.2 6.6 32.6 12.6 47.4 22.4 16.6 11 27.6 1.6 32-16 3.3-13 3-26.6 5.7-39.7 2.7-13.2 6.5-26.3 10.7-39.1 4.2-12.8 8.5-25.4 9.2-39M892.7 354c8.2-2.3 16.9-4.7 20.4-13.4A67 67 0 00918 320c1.2-19.3 3.4-38.4 10.2-56.6 3.8-10.4 8.8-20.3 13-30.6 4.4-11.4 7.2-23.1.3-34.4-3.1-5.2-7-10.5-11.8-14-23.1-17-39.3-40-57-61.9-6.4-8-14.3-14.8-22-21.6-10.4-9.1-23-8.8-35-5.6-13.5 3.5-26.3 9.6-39.7 13.2-19.6 5.2-39.5 6.6-57.8-5-5.3-3.3-9.6-8.2-14.5-12.2-3.5-3-7.1-5.9-11.1-8-8-4.3-16.5-1.2-19 7.7a67.5 67.5 0 00-2.4 19.8c.3 12.3 2 24.5 2.1 36.8 0 6.5-2.6 12.9-3.4 19.4-1.6 12.7 4.6 23.3 11.6 32.8 10.4 14 21.9 27.4 36.3 37.4 23.8 16.7 40.1 39 51.8 65.3a53.4 53.4 0 0013.8 20c7.2 6 15.4 9.5 24.4 11 19 3.1 37.5 7.5 55.4 15.2 8.7 3.8 19.1 3.8 28.8 5.6" stroke="#272A3E" stroke-width="2" stroke-miterlimit="10" stroke-linecap="round" stroke-linejoin="round"/><path d="M724 190.5c3.6 15.3 13.5 26 25.3 35.5a85.6 85.6 0 0124.2 30.6c4.7 10.2 10.5 19.9 15.6 29.9 6.4 12.4 17.8 17.7 30.2 19.6 15.6 2.5 31.4 3.7 47.4 1.4 10-1.4 18.2-6.1 23-14 12.4-20.4 18.2-43 18.2-66.9 0-9.7-4.7-18-10.5-25.6a2245.2 2245.2 0 00-41.7-52.9 81 81 0 00-15.9-14.2c-12.5-9-26.3-7.6-40-3.2-14.8 4.7-29.5 9.9-44.2 14.8a42.8 42.8 0 00-31.5 40.3l-.1 4M193.2 264a39.4 39.4 0 00-23.9 13.8 306.5 306.5 0 00-46.2 79.2c-10.7 26.9 2 48.6 29.7 55.6 19.4 5 39.4 5.5 58.7.7 19.7-5 34.6-16 42.4-36.5 8.3-22 5-43.2.7-65-4.1-21.7-19-33.5-36-43.4-7.4-4.2-16.2-5-24.9-5.2M1427.4 81a60 60 0 00-21-28.5c-12-9.7-24.3-19.2-39.5-23.3a135 135 0 00-64.5-3.5c-14.3 3.2-21.5 14-23.3 27.8a180.6 180.6 0 00-1 31.1c.6 13.2 2 26.3 3.4 39.4 1.7 16.3 11.9 21.3 25.4 20 20-1.7 37.9-9.3 56-17 14.1-6.2 28.8-11.1 43-17.1 5.1-2.2 10-5.6 14.4-9.1 6-4.8 6.7-12 7.1-19M1480 201.5c-5.6-14.7-18.4-19.4-31.9-23-27-7.5-51.2.3-74.6 13-16 8.8-29.2 20-35 37.6a54.4 54.4 0 00.5 40.4c4.5 10.3 12.5 14.3 22.4 16a90 90 0 0037-1.4c12-2.8 23.5-6.7 34.1-12.8a95.3 95.3 0 0034.3-33.9c4.4-7.3 8-15 11.3-23 1.5-3.7 1.4-8.1 2-12.3" stroke="#272A3E" stroke-width="2" stroke-miterlimit="10" stroke-linecap="round" stroke-linejoin="round"/><path d="M1361 243.1c3 7.5 6.5 14.9 15 17.7 10 3.3 20.3 4.3 30.5 1.6a62 62 0 0037.9-26.2c4-6.3 7.2-13 6.2-21a20 20 0 00-12.8-16.7 45.6 45.6 0 00-35.2-.4 81.1 81.1 0 00-30.3 17.9 40.7 40.7 0 00-11.5 26.5M199 305.8c-21.7 6.6-31.4 35-26.3 53.8 2.2 8.3 8.2 12.2 18.2 11.8 12.8-.6 29.8-12.3 33.7-23.5 7.6-21.6-2.4-39.4-25-42.2M230.9-27.5a134 134 0 00-40.3 17.9c-5 3.5-10 7.8-13.9 12.6-2.5 3-1.2 7.3 1.8 10.3 9.7 9.7 29 13.2 42.5 4.4 9.3-6.1 18.6-12 23.4-22.6 1.2-2.8 2-6 2.2-9 .7-9.3-2.7-12.2-15-13.7M1687.5 78a141.1 141.1 0 00-49 31 132.3 132.3 0 00-42.8 74.2 145.1 145.1 0 01-12.4 40c-7 13.6-18 20.7-32.2 24.3-13.9 3.5-28.6 4.9-40.8 13.2a193 193 0 00-27 21.6 250.5 250.5 0 01-61 43c-13.3 7-26.9 13.7-38.2 23.8a112.5 112.5 0 00-27.2 42.3c-9.6 23.2-18.1 46.9-30.8 68.6a43 43 0 00-1.7 41.5c10.9 25.5 28 44 55.2 51.7 8.3 2.4 17.4 4 26 3.4 17.7-1.1 26.4-9.9 31.1-27.1 3.3-11.6 6.6-23.4 11.4-34.4 8.4-19 23.9-31.4 41.3-41.7 18.3-10.9 38.3-19 53.8-34.3 7.2-7 14.2-14.5 20.9-22.1 8-9.1 16.2-17.7 27.7-22.2 9-3.6 18.4-5 28.4-5.4 13.6-.5 27.8-.8 40-9.1a40 40 0 0017.5-32c.8-9.2.6-18.4.8-27.7.2-13 7.5-21.5 17.4-28.5a93.3 93.3 0 0145.2-16.9c12.9-1.3 25.3 1.5 37.8 5.2 14.2 4.2 28.6 6.9 43.8 5 16.5-2 28.6-9.8 36.8-24.2 10-17.5 17.7-36 24-55 5.3-15.6.6-24.6-15.6-29.7-9.1-2.8-18.7-4.5-27.8-7.5-16.4-5.5-29-16.8-42-27.8-14-12-26.5-25.9-43.3-34.6a85 85 0 00-50-10.6l-16.6 2" stroke="#272A3E" stroke-width="2" stroke-miterlimit="10" stroke-linecap="round" stroke-linejoin="round"/><path d="M1511.1 311.7a352 352 0 00-84 52.8 61 61 0 00-24.4 41c-.8 6.4 0 13.5 1.8 19.9 2 7.2 9.7 11.6 18.6 10.4 28.5-3.8 56.2-10.5 81.2-25.5a61.1 61.1 0 0023.9-29.3 187.7 187.7 0 0013-45.3c2.6-17.2-9.7-27.9-24.8-24.7-1.5.4-3 .4-4.6.6M1315.2 47c-15.5 5.4-19 25.3-15 39.6 3 10.6 8.7 19 19.2 20.8 7.3 1.2 15.5-1.8 23-3.9a45.6 45.6 0 0023.7-16.2 20.5 20.5 0 00-1-25 45.7 45.7 0 00-41.3-16.4l-8 1" stroke="#272A3E" stroke-width="2" stroke-miterlimit="10" stroke-linecap="round" stroke-linejoin="round"/><path d="M1285.8 6c-18.8 5.5-23.6 19.7-23.8 37.4-.2 16.9-.9 33.9-1.8 50.8-.6 10.7-3.2 21-9.1 30.1a69 69 0 01-25 20.7c-18.8 11-35 24.7-49 41.1-3.5 4.1-6.7 8.4-10 12.7-6.5 8.7-9 18.3-8 29.3a67.5 67.5 0 0019.5 41.5c20.9 21.8 62.7 20.6 80.7-3.7 9.4-12.6 15.3-26.7 21.8-40.6 5.5-12 10.3-24.4 15.9-36.3 5.1-11.2 15.4-17.4 25.6-22.6a778 778 0 0159.4-26.8c10.8-4.4 22.6-6 33.9-9.3 9-2.5 18.3-4.6 26.5-8.8a28.9 28.9 0 0015.6-26c.5-18.2-2.8-35.8-17.4-48.3-10.2-8.6-21.8-15.8-33.1-23-18-11.4-38.4-14.8-59.3-16.5-20.6-1.7-41-4.6-61.7-1.8M304.2 124.1c-6.2 2.6-12.7 4.6-18.6 7.8-20 10.9-20.2 21.2-16.2 37.6 1.7 7 5 13.8 6.3 20.9 2.6 13.1-1 36.2-16.7 43.3-9.3 4.2-18.5 2.4-27.6.6-13-2.6-25.6-6-39.1-4.8a72 72 0 00-42 20.3c-6.6 5.9-12.4 12.7-18.7 19a61.2 61.2 0 01-7.3 6.3c-8.6 6.3-14.6 6.5-23.5 1-6.3-4-12.3-8.6-19-11.8a59 59 0 00-42-1.6c-6.6 1.8-13.1 4-19.5 6.4-17.7 6.9-28 21-34.3 38-3.9 10.3-6.7 21-9.7 31.5A59 59 0 01-47.5 370 408 408 0 00-74 391.4c-6.8 5.9-11.5 13.3-9.9 22.7.7 4 2.6 8.6 5.4 11.3a35 35 0 0024.7 10c16 0 32 0 47.8-.6 12.4-.5 19.4 5.6 24.3 16 3.9 8.2 8 16.2 12.4 24.1 10.4 18.6 35 16 47 5.5 8.8-7.6 15.9-17.2 23.2-26.3A48 48 0 01138 435c12.6-.4 25.4.5 38 2 17.2 2 34.3 2.2 51.2-1.2 21.7-4.4 39.5-15 49.6-35.7 9-18.7 12.1-38.4 9.8-59.2-1-9.4.1-19 1.1-28.5 1.3-11.2 10.7-17.4 23-15.4 10.6 1.7 20.8 5.4 31.4 8a68.7 68.7 0 0031.1 1 23 23 0 0017-21c.2-5 0-10-.5-14.8-2.8-23.3-5.2-46.7-8.7-69.8-3-19-7.2-37.8-19.3-53.7-9-11.9-18.9-23-34.8-24.5-7.2-.7-14.6 1.1-22 1.8M510.7 58.2c-4.8 2.6-9.8 5-11.5 10.9a12.2 12.2 0 007.2 14.6c5.3 2 12.6-1.5 15.3-7.3 5-10.4 2-15.7-10.3-18.3" stroke="#272A3E" stroke-width="2" stroke-miterlimit="10" stroke-linecap="round" stroke-linejoin="round"/><path d="M496.2 16.8c-25.6 11.8-37.3 33.9-34.4 62.3 1.3 12.9 6 24.2 14.6 33.1a37.8 37.8 0 0042.7 9.5A76 76 0 00567 70.2c6.4-21.7-2.7-37.7-20.7-46.8a73 73 0 00-49.5-6.7M969.3-87.3C961-83.6 951.9-81 944.5-76a85.5 85.5 0 00-38.3 66 64.4 64.4 0 0010.6 38.4C931.6 53 950 74.5 973.1 91.7a51.5 51.5 0 0035.7 10.2 40.7 40.7 0 0035-27 35 35 0 00-5.2-37c-12.3-15.4-13.2-32.5-10.3-50.8 1.8-11.2 3.9-22.4 3.8-33.6a38.3 38.3 0 00-30.8-38.6 78 78 0 00-31.4-2.3M34.5 291c-13.2 5-22 13.4-23.6 28.4-1.7 16.6 7.5 29.3 24.2 31.4 5.6.7 11.5 1.2 16.8-.2 14.7-3.6 21.5-12.3 19.9-27.8-.9-8-4.3-16.5-9-23-6.3-9.2-16.6-11.6-27.7-9M1524.3 276.3c-16.6 5.4-28.9 17.5-42.6 27.4a991.2 991.2 0 01-50.5 34c-19.3 12.2-38.4 24.8-48.8 46-9.3 19-14.7 39.4-16.3 60.6a100 100 0 009.7 56.2c1.6 3 3.4 6.3 5.8 8.7 6.4 6.2 15.4 6.5 21.4 0 6.4-7 12-14.7 17.6-22.4 14.3-20 33.4-33.6 55.3-44a453.8 453.8 0 0038.7-19.7 76.2 76.2 0 0027.6-27.6A228.3 228.3 0 011587 338c12.7-11.5 12.9-22.6 3.6-37.3-10.5-16.9-27-23.4-45.6-25.3-6.6-.7-13.4.6-20.1 1M1242.3 168a77.8 77.8 0 00-43 29c-8.2 10.4-15 21.5-12.4 35.8 2.4 14 15.9 25.6 30.5 23.6a42.4 42.4 0 0029.3-18.3 99.9 99.9 0 0019.6-44.8c.6-3.8.8-7.7.6-11.5-.4-8.2-5.2-15-16-14.9-2.6 0-5.2.6-7.9 1M836 222a30.3 30.3 0 00-17.5 19c-4.9 14.8-.6 28.8 19 31.3 14.2 1.8 30.4-5.4 30.1-22.5a28.6 28.6 0 00-31-27.9M1363-311.2c-4.6 1.4-9.2 2.7-13.7 4.4-21.1 7.7-34.5 22-38.4 44.5-2.4 13.8-5.4 27.5-7 41.4-2.1 19.8-9.4 38.2-14.8 57-3.3 11.8-5 24-3.2 35.6 3.1 20.7 10.5 40.3 26.7 54.6a86.1 86.1 0 0038.5 17.5c14.6 3.5 29.4 6.4 44.2 8a88.8 88.8 0 0149.3 22.6c8.4 7.2 16.4 14.8 25 21.8 16 13 26.2 29.9 34.3 48.5 8.1 18.6 16.2 37.3 25.2 55.6 9.3 19.1 17.8 18.9 34.7 9.2 16.6-9.5 27.8-24.6 38-40a122.5 122.5 0 0019-51.3c2.9-20-1.8-37.6-13.4-53.7-15.8-22-38.6-34-62.8-43.5a391 391 0 00-77.6-22.4c-15.8-2.8-26-14.8-22.8-32.2 2.2-11.5 10.2-19.1 20-24.6a227 227 0 0125.4-12 78.6 78.6 0 0050.7-59.6c4.3-21 9-42 13-63 1.5-7.8-1.6-12.4-9.6-13.5-8.4-1.1-16.9-.8-25.2-1.9-14-1.7-28-4.3-42-6-6.2-.8-12.6-.8-18.9-.5-24 1.3-47.8 5.1-72 2.3-7.2-.9-14.7.7-22 1.1" stroke="#272A3E" stroke-width="2" stroke-miterlimit="10" stroke-linecap="round" stroke-linejoin="round"/><path d="M1564-365.7c-13.1 4.3-26.1 9.5-39.5 12.8-17.8 4.4-36 7.3-54 10.9-10.8 2.2-21.5 4.6-32.3 6.6-17.2 3.3-34.6 1.4-51.9.4a201 201 0 00-54.6 5.8c-9.8 2.2-20 2.7-30 3.9-15.5 1.9-17.6 4.5-16.3 20.2.3 3.6.8 7.1 1.3 10.7a196 196 0 01-10.9 97.2 236.6 236.6 0 00-9.7 35.6c-2.8 14-1 28 3 41.4 4.4 14.5 10.1 28.5 15.3 42.7a65.5 65.5 0 0053.3 44c12.6 2.4 25.2 5 38 6.8A127 127 0 011432-6.5c14.8 10.4 30 20.1 41.6 34.5 9.1 11.4 14 24.6 19.3 37.6 6.3 15.6 9.2 32 9.9 48.7a47 47 0 01-14 37.6 33.6 33.6 0 01-25.3 8.8c-18.7-.7-37.4-2-55.8 2a160 160 0 00-47.6 19.6 99 99 0 00-27.7 21.8c-13.6 16.7-18 36.6-20.5 57.2-1.6 13.9-1 27.8.9 41.7 1.4 10.3 8.5 15.9 18.8 14.7 21.2-2.3 41.4-8.1 61.7-14.3a179.8 179.8 0 0049.4-21.6c12.7-8.5 23.7-19 33-30.7a234.5 234.5 0 0154.8-50.4c10.7-7 17-17.3 22-28.4 9.4-21 22.5-39.3 37.5-56.8 22-25.5 42.3-52.5 56-83.6 4-8.9 8.5-17.6 12.3-26.5a35.6 35.6 0 00-2-32.8 195.7 195.7 0 00-44.5-53.9c-12-10.1-27-14.5-41.5-20-14-5.3-28.3-10.4-40.3-20-13.7-10.9-12.8-19.5-5.3-31.7 8.4-13.5 17.1-26.9 24.6-40.9 6.1-11.6 10.2-24.4 16-36.2a270.6 270.6 0 0117.8-31.2 94.3 94.3 0 0016.4-58.1c-.2-6.3.9-12.7.2-19-.9-7.2-2.4-14.6-4.8-21.6-1.8-5.4-8.8-8.3-14.9-7.6l-15.3 1.8" stroke="#272A3E" stroke-width="2" stroke-miterlimit="10" stroke-linecap="round" stroke-linejoin="round"/><path d="M1157.5-323.8c-20 9.2-28 26.2-27.6 46.7.3 16.8 3.8 33.7 5.8 50.5a65.8 65.8 0 01-6.8 38.6c-8.6 16.8-18.3 33-26.7 50a100.9 100.9 0 00-10.8 65.4c2.4 12.3 8 23 17.8 31.6 19.5 17 43 25.3 67 32.8 12.5 4 25.3 7.3 37.8 11.7a38.2 38.2 0 0125.4 25.8c6.6 22.5 9.7 45 1.6 68-3.5 10-9.8 18-18.6 23.8-15.6 10.5-31.3 20.8-46.7 31.5a143.4 143.4 0 00-36.2 36.6 45.4 45.4 0 00-5.1 41.2c6 19.1 14.8 37.4 29.5 51.8a92.3 92.3 0 0066.2 27.5c29 .1 46.4-12.7 56.4-40.6a619 619 0 0013.2-40c8.1-28.9 26.9-47.9 53.5-59.9a975 975 0 0141-17.7c5.8-2.4 12.2-3.4 18.3-4.4 13.3-2.3 26.5-4.1 39.8-6.4 14.8-2.5 22.9-12.3 26.4-26.1 3.5-14 1.5-27.8-2.3-41.6-3.8-14-8.9-27.2-19.6-37.3A155.4 155.4 0 001361.7-9c-20.8-2-41.4-6-62-9.9-12-2.3-22.5-8-26.9-20.8-1.5-4.5-3-9-3.6-13.7-2.6-22-9.6-42.7-16.7-63.4-6.2-18-10.6-36.3-7.1-55.1a163 163 0 0111.6-36.5c9-20 13.2-40.3 8.3-61.9a48 48 0 00-22.5-29.5 168.5 168.5 0 00-58.3-24 67.7 67.7 0 00-26.3-.1M1043.2 216.8c-24.3 12.6-35.3 34.4-41.3 59.7-3.1 12.8-3.7 25.7-3.5 38.9.3 16.5 1.2 33.2-2.5 49.6a82.2 82.2 0 01-15.5 34.2c-8.5 10.5-18.2 20.2-27.1 30.5-8.2 9.5-16.7 19-24 29.3a280.7 280.7 0 01-43.7 46.4c-18.2 16.1-24.4 37.5-26.2 60.6-1 14 .8 27.3 9.3 39.5 7.8 11.1 19.5 15 31 19.6 15.3 6.1 26.6 15.4 26.1 33.3-.1 7.4-2 14.8-3.9 22-3 11.8-6 23.5-3.5 35.6 3.3 16.2 9.8 31.1 20.2 44 6.2 7.7 13.7 8 19.4.2 6-8.3 10.6-17.7 15.7-26.7 2.3-4 4.2-8.4 6.7-12.3 9.2-14 22.2-19.6 41.2-15.9 8.7 1.7 17.5 3.2 26.2 5 20.3 3.9 38.2-2.2 53.4-15 14.4-12 27.8-25.5 41.3-38.6 13.9-13.6 25.4-29.6 41.6-40.8 7.6-5.4 15.5-10.2 23-15.8 16.2-12.2 22.2-30 25.6-49 3-16.8-1.2-33-5.3-49.3-2.3-9.1-5-18.2-6.6-27.5a236 236 0 01-3.5-27.9c-.6-9.6-.3-19.3-.3-29 .2-18-.5-35.7-9.7-52.1a66.8 66.8 0 00-32.8-28.9c-25.9-11.3-43.4-30.8-57.2-54.5-8.3-14.3-19-26.7-31-38-8.5-8-17.5-15.5-26.5-23-4.5-4-10-5.6-16-4.2" stroke="#272A3E" stroke-width="2" stroke-miterlimit="10" stroke-linecap="round" stroke-linejoin="round"/><g opacity=".1" filter="url(#filter0_f)"><path d="M804.4 71.5c32.5-51.4 143-46.4 207.6-99.8 64.6-53.5 157.1 49 88 130-69.2 80.9-131.3 95-195.4 83.3-64.2-11.8-132.8-62-100.2-113.5z" fill="#72FFFF"/><path d="M805.2 72A84.4 84.4 0 01842 42.7a387.3 387.3 0 0154.6-19.3l6-1.8c38-11.3 79.3-23.5 110.2-49a58.3 58.3 0 0149.8-13.5 73.9 73.9 0 0142.9 27.9c22.2 28.7 28 74-6.2 114-34.5 40.5-67.2 64.1-99.2 76.2a173 173 0 01-95.3 6.9c-31.9-5.9-64.9-21.3-85.8-41.6a70.2 70.2 0 01-20.6-33.3 47 47 0 017-37z" stroke="#272A3E" stroke-width="2"/></g><g opacity=".1" filter="url(#filter1_f)"><path d="M380.6 308.6c10.6-48.9 70-92.2 134.5-128.7 64.6-36.5 166.6-5.6 143.3 56.5-23.3 62-33.6 141-90.5 159.2-57 18-198-38.2-187.3-87z" fill="#5275FF"/><path d="M381.6 308.8c5.2-24.1 22.5-47 46.7-68.4 24.1-21.5 55-41.4 87.3-59.6 32-18.1 73.4-19.5 103.8-8.7a68 68 0 0134.7 24.7c7.1 10.8 9 24 3.4 39.2-5.1 13.6-9.6 28-14 42.3l-2 6.3a525.5 525.5 0 01-16.7 47.5c-12.5 29.7-29.2 53.6-57.2 62.5-14 4.5-33.3 4.4-54.3 1-21-3.6-43.6-10.4-64-19.3a184 184 0 01-51.3-31.7c-12.5-11.8-19-24.1-16.4-35.8z" stroke="#272A3E" stroke-width="2"/></g><defs><filter id="filter0_f" x="687.6" y="-147.8" width="546.2" height="446.2" filterUnits="userSpaceOnUse" color-interpolation-filters="sRGB"><feFlood flood-opacity="0" result="BackgroundImageFix"/><feBlend in="SourceGraphic" in2="BackgroundImageFix" result="shape"/><feGaussianBlur stdDeviation="50" result="effect1_foregroundBlur"/></filter><filter id="filter1_f" x="252" y="24" width="568" height="535.4" filterUnits="userSpaceOnUse" color-interpolation-filters="sRGB"><feFlood flood-opacity="0" result="BackgroundImageFix"/><feBlend in="SourceGraphic" in2="BackgroundImageFix" result="shape"/><feGaussianBlur stdDeviation="50" result="effect1_foregroundBlur"/></filter></defs></svg>
