<svg width="1440" height="700" fill="none" xmlns="http://www.w3.org/2000/svg"><path d="M2661.5-94.4c-22.3 19.2-44 39.3-67.1 57.4a288.6 288.6 0 01-82 45.8c-21.3 7.4-41.4 2-61-6.3-9.9-4.2-19.4-9.2-29.3-13a43.3 43.3 0 00-32.7-.4c-12.6 4.8-26.2 8.2-39.8 4.1-9.7-2.9-18.5-7.6-23-17.8-4-8.9-3.4-14.5 3.4-21 3.6-3.5 7.5-6.9 11.7-9.4 17.6-10.3 25.4-26 27-45.8 1.7-21 3.2-42 6.2-62.9 2.6-17.4 7.4-34.5 11.2-51.7 2.9-13 1-25.8-2.9-38.2-7-22.8-25-34.6-45.6-43.8-30.6-13.5-62.5-24-91.2-42a2812.8 2812.8 0 00-73.5-44.2c-11-6.3-22.5-11.5-33.7-17.6-22.5-12.4-28-27.2-25.9-44.1 2.4-20.4 15.8-31.9 38.6-37.6 17.9-4.5 36.7-6.8 52-19 18-14.2 30-31.3 24.4-55.3a57 57 0 00-11.9-24 196 196 0 01-40.8-76.1c-6.8-23.8-23.6-36.5-48.2-40.8-21-3.6-41.7-4-62 2.2-31.6 9.7-45 34.3-49 65.1-2.2 17.4-2.8 35.1-3.5 52.7-1 24.3-10.1 45.6-23.8 65a311.3 311.3 0 00-35.9 65 108 108 0 00-8.8 51.1c1.8 16.9 11.2 27.7 26.8 34.4 21.5 9.2 44.4 11.4 67 15.3 16 2.8 31.9 5.2 47.5 9.1 18.1 4.5 27.9 18.1 32 35.4 7 31 18.6 59.2 40.7 83a362.8 362.8 0 0131.4 39.5c10 14 18.3 29.2 27.3 43.9 1.1 1.7 2.1 3.6 2.7 5.6 6.4 21.8-2.3 34.4-25 37.7-20 2.9-40 1.3-60 1.7-23 .4-45.5 4-62.3 23-19.7 22.2-39.7 44-60 65.6a283.6 283.6 0 00-51 72.6c-5.5 11.6-8.9 24.1-13.6 36-7 17.8-12.8 36.1-27.3 50-11 10.4-24 17.8-37.8 22.9-27 9.9-48.5 27-68.2 47.2-19.1 19.7-38.2 39.7-62.6 53a622.3 622.3 0 01-67 32.7c-38 15-65 40.2-81.3 77.4-9.5 21.7-19.6 43.1-35 61.4-9.1 11-19 21.5-29.6 31.3-18.8 17.6-25 38.7-21.9 64 3 24 12.2 45.6 21.4 67.5 4.7 11.2 8.5 23 14.2 33.6a61.1 61.1 0 0040 29.7c28.2 7.6 56.2 16 84.7 21.8a161 161 0 0047.5 2 63.4 63.4 0 0057.4-56.9c2.6-21.7 3.3-43.7 11.3-64.7a106 106 0 0139.3-52c24.8-16.8 51-32 75.7-49.1 19-13.1 36.3-28.7 55.2-42 18.8-13 40.8-15.7 63.1-15.8 23.3 0 47 .4 69-7.8 31.2-11.6 43.8-37.4 48-68.7 2.3-17.2 4.5-34.6 8.7-51.3 5-20.2 21.1-29.4 40-33.6 24.4-5.4 48.8-.4 73.2 1.5 24.3 2 48.7 2.4 72.8-1.9 34.2-6.1 57.7-24.7 69-58.6 7.4-22.1 17-43.7 31.7-62.1a118 118 0 0158.9-42c15.3-4.6 30-2 44.7 2.5 20.6 6.2 41.1 12.4 61.5 19.1 24.2 8 48.1 16.4 72.2 24.6l14.4 5.2M861.5 1141.6a778.2 778.2 0 0050.4-102c6.8-17 14.2-33.6 16.7-52.2a88.4 88.4 0 00-9-54.2c-8.5-16.6-18.4-32.4-26.5-49.2a837.5 837.5 0 01-27.3-61.7 255.6 255.6 0 00-33-63.9c-23.3-30.6-23-61-4.4-93.4 17.8-31 34.1-63 51.8-94 7.4-13 15.9-25.7 25-37.6a169 169 0 0031-68.1c3.9-18.2 14-30.2 31.9-36.8 15-5.5 30.4-10.7 42.8-21.7a75 75 0 0027-53.7c1.2-21.4-6-41.4-9.2-62-3.3-21.1-.9-42.4 8.6-62.3 9.8-20.6 20.4-40.8 28.7-61.9 11.4-29.3 3.5-47-17.7-64.7-9.6-8-20.2-14.7-30.2-22-28.7-21-48.5-49.5-68.1-78.4C935.8-19 922-40.3 903.5-57.8a45.4 45.4 0 00-46.7-9.9c-22 9.3-43.7 19-65.6 28.7-34.4 15.3-61.5 3.9-83.1-18.4-11.9-12.1-23.4-24.4-38.5-32.9-20.3-11.3-51.5-3.8-65.8 13.9a126.3 126.3 0 00-25.2 55.8 164.9 164.9 0 01-31.2 69c-4.9 6.4-9.2 13.3-13.3 20.3-14 24.6-3.6 56.6 22.7 72.1a689.9 689.9 0 0190.5 60.8c14.3 11.8 30.5 21 45.2 32.3a120.5 120.5 0 0147.8 75.9c2 11.9 4.5 24 4.2 36-.5 16.4-9.7 28.8-22.3 39.4-20.7 17.4-41.6 35-56 58.2-17.3 27.6-34 55.6-49.9 84-14.4 26-26.8 52.9-40.9 79-17 31.4-44.4 51.4-77 63.4-28.3 10.4-57.6 18-86.4 26.8-22.2 6.7-44.4 13.6-66.7 20a1226 1226 0 01-58.3 15c-31.7 7.3-63.5 14-93.4 27.2-24.9 11-51 10.2-77.3 5.7-26.1-4.4-52.2-9.5-78.6-12.7-16.3-2-33 0-49.4-1.3a457.2 457.2 0 01-61.1-8.4c-36.7-8.3-73-17.9-111-18.6-16.9-.4-33.7-.7-50.5-1.8a51.7 51.7 0 01-37.1-21 32.8 32.8 0 01-.8-37.4 141.6 141.6 0 0135.5-33c16.8-12 34.7-22.7 48.6-38.5 8.5-9.7 17.6-19 26-29a69.4 69.4 0 0143.2-25.5c12.9-2 26.4.8 39.6.5 23-.4 46-.5 68.7-2.7a891 891 0 0177.6-4c20.4-.2 42.9.2 58.9-17.5 5.2-5.8 11.3-11.6 14.2-18.6 10.8-26 32-41.3 54.8-54.8 15.1-9 30.3-18 46.2-25.4 22.8-10.6 47.1-11.3 71.9-9.2 19.3 1.6 39 3.5 57.6-5 26.4-12 39.7-34.6 47.6-61 3.3-11 3.2-21.8-6.6-29.7a49.1 49.1 0 00-14.9-9c-17.2-5.6-34.8-10.2-52.1-15.5a102 102 0 01-71.9-71c-7-23.2-7.5-47-7-71.2.6-40.1-7.8-78.6-26.8-114.1a742.8 742.8 0 00-32.5-55.2c-15.4-23.5-36.5-37.1-66.1-33.4C110-55.7 79.7-53.7 50-48c-21.4 4.2-41.8 13.4-62.8 20a158 158 0 01-54.3 8c-16-.6-32.2 0-48 2-15 2-29.4 7-44.3 10-16.6 3.2-33.4 7.2-50.3 7.8-23 .7-45.7 3-68 8.7-15 3.8-30 7-45.1 10.6-2.2.5-4.7.7-6.6 1.8-22.7 13.6-24.7 24.2-7.6 49.2 8.5 12.4 17.6 24.2 22.3 38.8a38.6 38.6 0 01-19.8 47.9 83 83 0 01-60.4 5c-19.6-5-38.3-13.4-57.9-18.9a139.8 139.8 0 00-39.1-6c-30.2.6-58.2 10.5-84.8 24.7-10.6 5.7-13.7 13.3-12.9 24.5.9 12.1 1.1 24.3.6 36.4-1 22.1-11.5 40.1-25.5 56.6a263 263 0 00-18.7 24 90.9 90.9 0 01-30.8 31.2c-17.1 9.4-35 5.2-50.3-3-15.7-8.5-30-20-43.6-31.9-32-27.9-64-27.6-94.9 7.1-17.8 20-33.5 41.8-50.8 62.2-13.4 16-27.8 30.8-47.3 39.6-20 9-39.4 8-57.7-4-14.7-9.5-28.7-20.3-43.4-29.9-5.3-3.5-11.7-5.3-17.6-7.8" stroke="#272A3E" stroke-width="2" stroke-miterlimit="10" stroke-linecap="round" stroke-linejoin="round"/><path d="M-1168-433.5c42.5-3.4 81.7 7.4 117 30.3 23.2 15 44 33.7 66.7 49.6 28.6 20.1 58.1 38.9 87 58.6 13 9 26.4 18.2 37.9 29 17 16.2 16.8 36.5 10.4 57.8-3.8 12.6-8 25.6-8.8 38.6-1.2 18.9 10 33.7 23.2 45.2 25.4 22.1 54 38.4 88.7 41.7 25.6 2.5 47.1-6.9 66.3-22.2 12.8-10.2 23.8-22.6 36.7-32.8 14.8-11.6 31.7-19.6 51.3-14.3 20.9 5.6 37 17.3 43.2 39 3.5 12.3-.6 24.3-4.3 36-5.4 17.5-12.1 34.7-16 52.5a153.8 153.8 0 007.7 86.7c7.4 20 24.1 30 44.2 31.7 21.3 1.8 42.8.9 64.1.2 6.8-.2 13.5-3 20-5.3C-424.5 86-420 80-419 71.4c1.3-12 2.6-24 3.5-36 2.3-32.4 21.3-50.7 50.8-60.5 23.4-7.8 46.7-16.2 70-24.4 22.4-7.8 45.2-9 68.5-5.5 18 2.8 36 5 54.1 7.1 7.2.8 14.5.5 21.8.4 23.6-.2 47.4-2.1 70.9-.4 26.6 2 51.4-2.4 75.5-12.7a413.4 413.4 0 0185.6-25.6c16.5-3.1 32.3-9.8 48.8-13.4 42-9 82.9-1.6 105.8 45.1 11.6 23.7 20.2 48.8 30 73.2 7.2 17.6 15.5 34.7 21 52.8 5.1 16.8 7.6 34.2 8.5 52.2 1.2 26.6-.9 54.2 11 79.5a69 69 0 0037.8 35c21.8 9.2 44.6 11.2 67.7 12.2 28.2 1.2 56.6-1.6 84.4 4.6 8.8 2 17.6 4.8 25.7 8.7 21.4 10 22.4 31.6 12 48.6a112 112 0 01-36.2 35 215.4 215.4 0 00-59.8 58.8 91.2 91.2 0 01-32.9 30.4c-17 8.5-34.6 15.8-52.4 22.4-25.4 9.4-52.5 13.7-76.7 27.2a63.1 63.1 0 00-33.8 51.7c-3 29.2-4.7 58.5-7.2 87.7-1.5 17.8 2 34 15.7 46.4 11.3 10.4 25.7 13.9 40.4 15.7 21.1 2.7 41.8 0 62.5-5.4 17.4-4.5 35.3-6.9 52.9-10.7 31.5-7 64-10.8 93.7-24.3a120.3 120.3 0 0063.1-65.9c14.2-33.8 29.7-67 44.8-100.3 10.7-23.8 21-47.9 33-71 6.6-12.8 16-24.3 25-35.8 9.1-11.7 20.6-21.8 25-36.7a53.7 53.7 0 00-27.4-61.6c-15.4-8.3-31.6-15-47.1-23.1-12-6.2-23.8-12.9-35-20.4-19.1-12.7-38.5-25-56-39.7a326.3 326.3 0 01-38.7-40.5c-8.3-9.7-14.4-21.2-22-31.6-10.9-15.2-7.8-29.6 3-42.7 14.9-18.2 30.1-36.3 46.7-53 18.6-18.7 29-41.3 36.1-66 7.9-27.4 18.5-53.4 40.4-73 30.1-26.7 72.7-34.3 106.8-6.1 12.5 10.3 24.5 21.1 36.5 32 18.3 16.5 46.8 18 70.2 2 18.5-12.7 35.8-27 53.3-41C873-139 884-137 895.9-128c11.4 8.6 18.8 20.2 26.3 31.6 22 33.6 43.2 67.7 65 101.4 18.8 29.1 44 51.3 74.3 68.1 13 7.3 25.6 16 36.6 26.1 15.6 14.3 18.8 33 11.5 52.5-6.2 16.5-14 32.3-21.6 48.2-9.4 19.5-18.6 39-20.9 60.8a149 149 0 00.1 25.6c1.6 22.9 5.6 45.7 4.9 68.4-1.1 34.2-17.6 62-42.3 85.3-14 13.3-28.1 26.6-41.2 40.8-8 8.7-13.7 19.8-21.4 29-12.9 15.1-25.5 30.7-40 44.2-28 25.8-42.7 58.4-53.5 93.7l-9.1 29.7c-8.4 28-2 53.4 13.4 77.3 13.4 20.7 27.7 41 40 62.4 7 12.4 11.2 26.6 16 40.3 8 22.6 15.7 45.4 23.3 68.2 6.5 19.7 12.6 39.5 10.5 60.8a86.4 86.4 0 01-16 40.3c-18.8 27.5-31.3 58.1-44.1 88.5-3 7-5 14.4-7.3 21.6" stroke="#272A3E" stroke-width="2" stroke-miterlimit="10" stroke-linecap="round" stroke-linejoin="round"/><path d="M-1044.3 571.8a96.8 96.8 0 0167 17.6A208.6 208.6 0 01-945 619c7.8 8.4 10.1 19.8 12 31l8.6 54.2c4.5 28 26.7 45 54.2 47.6 13.7 1.3 27.6 2 41 5 20.3 4.6 35 18.3 48.7 33.2 13.5 14.8 27.4 29.3 41.8 43.2 28.6 27.6 64.6 37 102.7 42 18.2 2.3 36.3 5.2 52.5 15.7 13.3 8.6 22 20.6 30.4 33.1 5.7 8.5 9.8 18 15.4 26.6 10.7 16.5 20.5 18.5 37.4 8.3a353.2 353.2 0 0069-56c20.7-20.9 42.7-40 67.1-56.6a732 732 0 0043.5-32c22.5-17.9 22.7-29.4 7.6-55a101 101 0 00-78-52c-36-4.5-71.9-11.8-107.8-18a127 127 0 01-47.5-19c-18.5-12.2-36-26.1-53.4-39.7-16.3-12.7-20.9-30.8-18.8-49.9 3-27 7.5-53.8 21.8-77.7a79.2 79.2 0 0111.9-16.1c11-10.8 21.2-12.1 35.8-4.5 13.4 7 26 15.7 39.4 22.6 24.2 12.2 50.5 16.7 77.3 19.3 10.8 1 22 1.7 32 5.2A69.5 69.5 0 01-363 558c6 9.3 12.7 18.2 19 27.3 13.7 19.3 32.3 23.8 55.6 18.3a180 180 0 0058.2-24.4 162.2 162.2 0 0037.1-35.2c12-14.8 25.7-27.7 44.2-34 16.4-5.5 33.3-3.7 50-2.2 25 2.2 50.3 5.7 75.2 1.3 27-4.9 54.3-9.7 79.1-22.5a68.8 68.8 0 0028.7-31c13.5-25.9 27.2-51.7 39.7-78 9.3-19.8 23.1-30.8 45.5-32.4 25-1.9 50-5.9 74.9-9l4.9-.6c23-3.7 30.5-15.3 22.8-37.3-5.8-16.9-13.6-33-19.6-50a272 272 0 01-14.5-92.8C237.8 99.7 222.6 49 186.5 6A79 79 0 00117-23.7 365.3 365.3 0 008.4 0 316.1 316.1 0 01-81 19a82.9 82.9 0 00-59.2 32c-18.5 22.4-36.4 45.4-55 67.9-16.8 20.5-38.2 35.3-60.8 49.3-32.3 20-68.4 30.8-103.1 45-16 6.4-29.1 16-36.5 32l-17.9 39.8c-19.1 43.2-51 71.6-97.3 82.9-16 3.9-32.3 6-48.1 10.2-8.8 2.3-17 7-25.3 10.8-6.3 2.9-12.3 6.4-18.7 9.1-21.4 9.1-42.6 4.7-63.3-2.1-36-12-68-32.1-100.3-51.6-14.5-8.9-29.5-15.4-47.8-12.4a62.8 62.8 0 00-37.4 23c-19.7 22.6-38 46.4-56.7 70a156.4 156.4 0 01-41 37.2c-13.8 8.4-28.8 14-45.1 17.2-20.2 3.8-40.4 3.2-60.6 5M1129.4-1020.1c13.6 19.8 33.6 31 55.3 39.4 20.7 8 41.6 15.6 62.9 21.9 33.2 9.8 54.6 32.5 70.6 61.6 11.3 20.5 23.3 41 46 50.1 14 5.6 30 7.3 45.3 9.5 23.2 3.3 45.9 7.1 64.2 23.8a113.9 113.9 0 0136.7 66.6c3.7 21.5 3.8 43.2 2.2 64.9-.6 8.1.4 16.3 1 24.5 1.1 16.4-3.9 21.6-20.3 20.3-26-2.1-51.1-8.7-76-16.3-29-8.8-57.9-18-87.2-25.6-24.2-6.3-45.1-.2-58 22.9-4.5 7.9-7.4 16.9-9.8 25.7-9.2 35.5-6 71-.8 106.7 2.2 15.2 5.5 30.3 6.3 45.6 1.1 21.6-9.2 40-20.2 57.8-10 16.3-22.6 31.6-27.2 50.7-3.8 15.6-8 31.5-8.6 47.5-.8 19.8.5 40 3.2 59.7 4.9 36.8 22.2 66.1 55.5 85 13 7.5 24.9 17 37.7 24.8 18.7 11.4 40 15.4 60.8 21.3 18.5 5.4 36.8 11.3 50.7 26.2 28.9 31 24.3 84-17 102.2-27.2 12-51.5 11.7-75-6.9-2.2-1.7-5.2-2.4-7.4-4-23.6-18.4-37.6-3-41.8 19-2.7 14.7-2.5 29.9-3.7 44.8a186.7 186.7 0 01-13.6 54.2 127 127 0 00-9.4 41.5 61 61 0 009.2 30.2c19 33.2 39 65.8 64 94.8 16.7 19.4 38.8 32.3 62.2 42.8 29.8 13.2 57 31 84.1 48.7 18.9 12.4 24.6 28.9 19.8 50-4.6 20.7-9.2 41.4-14.1 62-7.5 31.4-4.3 62.4 3.6 93.3 4.2 16.5 9 33 11.9 49.8 3.5 21.5-.5 42.8-4.9 63.8-1.5 7.5-4.1 15-6 22.5-6.8 27.3-25.6 43.5-50.8 52.4-37.5 13.3-68 36.9-95.6 64.3-21.5 21.3-41.7 43.8-63.3 64.8a122.8 122.8 0 01-62 33.3c-16.6 3.4-33.6 5-50.2 8.5-14 3-28.8 4.5-39.5 16.4a65.2 65.2 0 00-17.6 50.6c1.3 17 7.8 32.3 14.2 47.6 9 21.7 11.1 44.6 14 67.4" stroke="#272A3E" stroke-width="2" stroke-miterlimit="10" stroke-linecap="round" stroke-linejoin="round"/><path d="M-157.9-862.7c-1.7 20.7-4.7 41.5-.1 62.2 2.4 11 4.8 22 9 32.4 12.4 30.5 25.8 60.7 38.5 91 7 16.8 17.6 31.1 31.2 42.4 22 18 33.5 42.2 40.4 68.3 7.5 29 27 40.6 54.2 44.8 13 2 26.2 4.6 38.5 9.2 21 7.7 32 25.5 40.1 45.1 13.5 32.5 29 63.5 52.5 90.4 18.2 21 28.9 45.8 29 74.2.1 15.8.2 31.6 0 47.4C175-237 189-218 207-214.9c16.3 2.8 32.8 3.4 49 6 22 3.7 43.8 8.8 65.8 12.5 22.8 3.8 45.5 3.7 67.5-5.2 11.8-4.8 17.1-13.3 17.6-25.9.4-11 1.9-22 2.7-33 3-37.8 36.6-65.8 71-72.1 27.4-5 51 4.8 74 16.1 36.5 18 75 29 114.4 37.8 32.7 7.3 56.5 24.2 66 57.3 5 17.9 2 35.6-23 36.3-15.4.4-30.9 1-46.3.6a119 119 0 00-44.3 8.7 216.6 216.6 0 00-62 33.3A82 82 0 00532.2-98c-5.1 19.6-9.6 39.4-16.8 58.2-11.3 30.1-33.6 52.2-59.2 70.4C427.6 51 398 69.7 368.7 89c-7.8 5.2-20.9 3-27.1-5.6A322.5 322.5 0 01316 44.1a512.1 512.1 0 01-29.2-62.5c-5.5-15.2-6.3-32-9.4-48.1-3.5-18.5-9.4-36-24.7-48.2-11.2-9-22.6-17.7-34.8-25.2a456.6 456.6 0 00-42.1-22.6c-22.3-10.6-43.8-11.3-64.6 4.8-15.2 11.6-30.5 23.6-47.4 32.2-31.1 15.8-63 30-95.3 43.4-17 7-35.6 5.3-53.8 3.1-34.3-4-68.9-6.2-103-11.6-20.5-3.2-40.5-10.3-60.3-17-21.5-7.2-42-18.6-65.4-17-13 .8-25.7 5.1-38.4 8.4-5.5 1.5-11.7 6.6-16.2 1.6-5.1-5.4-.1-12 2.4-17.8 19.2-43.3 53.1-73.5 90.2-100.9 18.8-14 38.3-27.5 61-33.8 27.2-7.5 41.5-8.3 58.5 16 5.5 8 14 14.2 22 20 9.5 6.7 33.4 2.6 41.6-6 15.6-16.4 14.6-30.6-3.7-44.8-7-5.4-14.4-10.5-22.4-14a46.2 46.2 0 01-27.7-32.3c-9.2-33.3-27.6-61.6-48.2-88.8a265 265 0 01-39.7-75c-5.1-15-8.5-30.5-11.7-46a67 67 0 00-21.5-35.7c-27.6-26-55.7-51.6-84.4-76.4-13-11-28.6-19-41.7-29.8a730 730 0 01-45.9-42.6c-9-8.9-11.6-20.5-11.2-33 .6-20.2.4-40.3.6-60.4 0-3.6.4-7.2.6-10.9M247.5 844.1c5.1 14.6 18.4 20.4 30.1 27.9 26 16.5 52.3 32.7 78 49.7 17.8 11.7 35.1 24 52 37a752.9 752.9 0 01108 98.1c24.3 27.7 52.7 23 74.8.5 10.2-10.5 18-23.3 27.5-34.6 6-7.2 12.5-13.9 19.2-20.2 19.2-18 40-18.3 59.8-2.4 16.7 13.2 32.6 27.4 49.6 40a93.3 93.3 0 0050.6 20 51.8 51.8 0 0048.6-31.9c9.4-24.1 4.7-46.8-8.7-67a366 366 0 00-72-82.1 100.6 100.6 0 01-38.7-74.1c-1.2-19.6-1-39.4-3.6-58.8-2.5-19.1-7-38-11.8-56.8-6.1-23.8-2-41.3 20.5-51 8.4-3.7 16-9.1 24-13.7 33.6-18.9 56.4-45.8 66-84 4.5-17.8 1.4-32.1-10.8-45.1a78.9 78.9 0 00-42.5-24.1c-22.1-4.4-38.6 6.6-52.4 23a191 191 0 00-41.8 84c-5.7 26.5-17.9 47.8-41.6 62.7-19.6 12.2-37.6 26.8-56.4 40.2-26.2 18.6-55.8 30.4-85.8 41-38.3 13.3-77.5 24.2-115.5 38.4-28.8 10.8-56.4 24.6-84.2 37.8a87.3 87.3 0 00-35 27c-3.7 5.1-5.4 11.7-8 17.6M1245.6 461.8c-4.2-2.5-9.7-4-12.5-7.5-14.4-18.1-17.7-39.7-5.4-59.3a291 291 0 0121.8-30.3c16.4-20 18.1-41.5 11-65.7-6.2-20.5-14-39.7-30-54.3-7.8-7.4-16.4-15-26-19.3-25.6-11.7-41.8-.7-52.5 20.9a128 128 0 00-12.2 68.6c1.3 16.3 3.1 32.6 6 48.6 5.5 30-.4 55.3-25.3 75.4a860.8 860.8 0 00-63 55.3 305.3 305.3 0 00-38.6 47 233 233 0 01-34.8 40.6c-11.4 10.7-23.1 21.1-33.3 32.9a66 66 0 00-14.4 50 53 53 0 0036 46.7c31.4 12.2 56.7 30.8 72.9 61.1a106 106 0 0018.5 23.4c11.8 11.9 28 14.8 43.4 16 23.8 2 46.3 7.4 68 16.8 32.9 14.1 61.5 5 88-15.8a266.7 266.7 0 0052.6-53.8c16.8-23.4 39.9-40 61.8-58.1 23.6-19.4 32.6-45 29.5-75.5-2-21.2-10.6-40.2-16.4-60.2-6.7-22.8-9.6-46-10-69.9-.4-24.4-2-49-5-73.3a44.6 44.6 0 00-39-37.6c-12.4-2-20.4 6.7-28.7 13.5-4 3.3-6.2 8.6-9.4 12.8-14.7 19.6-29.3 39.4-52 50.9M1246-112.7c-2.2-16.5-13.2-28-23.8-39.3-16-17.1-23.2-37.4-27.2-60-4.2-23.2-10.6-46-16.1-69-6.1-25.4-25.2-34.9-48.2-38.4a447 447 0 00-59-6.3c-18-.3-35.8 4.7-53 11-15 5.3-30.4 9.5-45.5 14.6-15.6 5.3-28 12.8-29.9 32.1-2.3 23.3-7.2 46.4-10.8 69.6-4 25.8 2 50 12 73.5 19.6 46.4 47.2 88 78 127.4 18.3 23.5 43.9 37.6 71 48.6 23.7 9.6 47.6 18.3 69.3 32.7 24.2 16.1 40.3 2.3 46.8-23.4 4.8-18.9 4.5-38.9 8.4-58 3.9-19.4 9.4-38.5 15.5-57.2 6.2-18.7 12.5-37.2 13.6-57" stroke="#272A3E" stroke-width="2" stroke-miterlimit="10" stroke-linecap="round" stroke-linejoin="round"/><path d="M1230.5 780.4c23.4-4.5 39.6-19 53.8-37a941.4 941.4 0 0141.4-48.6c7.5-8.3 17.4-14.5 24.5-23 20.8-24.8 13.5-51.6-7.8-70.7-13.2-12-29.7-8.5-45.7-4.6-26.1 6.4-51.3 9-75.4-9a316 316 0 01-51.2-50.3 84 84 0 00-35-27.2c-18.3-6.6-34-.7-49.2 9.8a110.6 110.6 0 00-34 42 213.7 213.7 0 01-47.2 59c-9.6 8.8-16.9 18.8-15 33.3 1 7.5 5.3 12.3 10.3 16.4 7.9 6.4 16 12.8 24.9 17.6 19 10.3 31.9 26.8 44.4 43.2a78.8 78.8 0 0055.6 32.4c27.7 3.2 55 7.4 81.9 15.5 7.2 2.2 15.2 1.6 22.9 2.3M949.8 360c12.1-3.4 24.8-7 30-19.6a98 98 0 007-30.4c1.8-28.2 5-56 15-82.7 5.6-15.2 12.9-29.8 18.9-44.8 6.6-16.6 10.7-33.8.6-50.3a70.8 70.8 0 00-17.3-20.4C970 87 946.6 53.2 920.7 21.3c-9.4-11.7-21-21.7-32.3-31.6-15.1-13.3-33.6-12.9-51.2-8.3-19.7 5.1-38.3 14.1-58 19.3-28.7 7.7-57.8 9.7-84.5-7.2-7.7-4.9-14-12-21.2-18-5.1-4.1-10.4-8.5-16.2-11.6-11.7-6.3-24.1-1.7-27.9 11.3a98.7 98.7 0 00-3.4 29c.4 17.9 3 35.8 3.1 53.8 0 9.4-3.8 18.8-5 28.3-2.3 18.6 6.7 34 17 48a236 236 0 0053 54.7c34.9 24.4 58.7 57 75.8 95.4a78.1 78.1 0 0020.2 29.3 72.3 72.3 0 0035.6 16 337 337 0 0181 22.3c12.8 5.6 28 5.6 42.2 8.1M579.8 416.4c-7.3-19.1-16.8-25.5-32.1-20.6a76 76 0 00-20.5 9.5 534.7 534.7 0 00-43.3 33c-17.8 15.4-38.9 25-60.2 33.6a302.8 302.8 0 00-96.2 58.6 80.2 80.2 0 00-26.5 59.3C301 606 316 627 332.1 634.5c16 7.5 32.9 8.7 49.6 8.2a717 717 0 0082-6.2 93 93 0 0067-40.5 152.5 152.5 0 0020.4-51.8c5.3-23.6 9.7-47.6 16.2-71 5.2-18.4 11.8-36.5 12.6-55.9" stroke="#272A3E" stroke-width="2" stroke-miterlimit="10" stroke-linecap="round" stroke-linejoin="round"/><path d="M703.3 120.9c5.2 22.3 19.7 37.8 36.9 51.8 15 12.3 27.1 26.9 35.4 44.8 6.8 15 15.4 29 22.9 43.7 9.2 18.1 25.9 25.8 44.1 28.7 22.8 3.6 46 5.3 69.3 2 14.6-2 26.6-9 33.6-20.5a185.9 185.9 0 0026.7-97.7c0-14.3-7-26.6-15.4-37.6-20-26-40.2-51.9-61-77.2-6.5-8-14.8-14.9-23.2-20.9-18.4-13-38.6-11.1-58.7-4.7-21.6 7-43 14.5-64.4 21.7-28.4 9.5-43.9 29-46 59l-.3 6M-73 228.2a57.7 57.7 0 00-34.9 20.3c-28.2 35.2-51 74-67.6 115.8-15.5 39.3 3 71 43.4 81.3 28.5 7.3 57.6 8 86 1 28.7-7.2 50.6-23.5 61.9-53.4 12.2-32.2 7.3-63 1.1-95.1-6-31.6-27.7-48.8-52.8-63.3A75 75 0 00-72 227M739 427.4c-28.6 11.4-46 34.4-63 58.8-26.5 37.7-43.8 80.4-68.3 119A205.6 205.6 0 01503 691c-49.2 17.8-99.2 33.4-148.7 50.2a2088 2088 0 00-81.3 29 527.5 527.5 0 00-62.6 27.5c-26.6 14.5-53.3 14.7-81.3 6.8-19.9-5.6-39.8-12.1-60.1-15a127.6 127.6 0 00-90.8 22.8A56 56 0 00-46 856.6c-2 26.5 1.5 52.1 13.3 76.3a93.2 93.2 0 0057.2 48.3c17 5.8 34.4 8.1 52.3 7.3a94 94 0 0059-26c17.1-15.3 34.5-30.4 51.5-45.8 24.4-22 52.2-24 82.1-15a209 209 0 0161.2 31.8c31.2 22.4 63.2 43.7 93.8 66.7 24 18 44.7 39.5 60.7 65.3 8.2 13 16.2 26.2 28.8 36.2a56.8 56.8 0 0049.7 10c16.6-3.6 32.4-11 48.2-17.5 7.2-3 13.7-7.8 20.3-12.2 22.4-15.1 36.4-15 58.3.8 9.7 7 19 14.7 29.3 20.9 23 14 47.7 21.3 75.1 17.6a87.3 87.3 0 0053.7-27.6 153.8 153.8 0 0042.3-96.8c1.2-20-3-39-13.6-56.6-13-21.6-26.7-43-38.3-65.4-7.7-14.8-11.4-31.6-18.2-47-6.3-14-13.7-27.6-21.8-40.7-13.4-21.7-25.9-43.6-28-69.6a74 74 0 0113.3-52c12.2-16.2 25.2-31.8 37.4-48.1 17.8-24 30.3-51.2 42.6-78.3 5-11.1 9.2-22.5 8.8-35.5-.6-18.5-10.5-30.6-25-39.2-17.4-10.5-36-19-53.6-29.3a72.8 72.8 0 00-54.4-8" stroke="#272A3E" stroke-width="2" stroke-miterlimit="10" stroke-linecap="round" stroke-linejoin="round"/><path d="M450.2 502.4c-12.5 4.8-25.5 8.8-37.6 14.7a73.5 73.5 0 00-36.2 37.6c-10.4 23.7 3 41 22.1 48.8 18.4 7.7 37.8 9.5 57.3 8.5 32.2-1.6 60-31 61.1-63.6.3-8 .6-17-2.2-24.3-6.9-17.9-24.5-26-47-23.9l-16.5 2M1524.8-149c-27.5 8.1-34.6 28.9-34.9 54.7-.2 24.7-1.3 49.5-2.7 74.3a89 89 0 01-13.3 44c-9 14-22.8 22.2-36.6 30.3-27.3 16-51 36-71.5 60.1-5.1 6-9.8 12.3-14.6 18.6a58.4 58.4 0 00-11.7 42.8 98.8 98.8 0 0028.4 60.7c30.5 31.9 91.8 30.1 118-5.4 13.8-18.4 22.4-39 31.9-59.5 8.1-17.5 15.1-35.5 23.2-53 7.6-16.3 22.6-25.5 37.5-33 28.3-14.3 57.4-27.4 86.9-39.3 15.7-6.3 33-8.7 49.5-13.4 13.1-3.8 26.8-6.9 38.8-13a42.3 42.3 0 0022.8-38c.7-26.6-4-52.4-25.5-70.6-15-12.6-31.8-23.1-48.4-33.6-26.3-16.7-56.1-21.6-86.7-24.2-30-2.5-60-6.8-90.2-2.5M89.3 23.7c-9 3.8-18.6 6.7-27.1 11.4-29.2 16-29.6 31-23.8 55 2.5 10.4 7.3 20.2 9.4 30.5 3.7 19.3-1.7 53-24.6 63.4-13.5 6-27 3.5-40.3.8-18.9-3.8-37.4-8.8-57.2-7-24.4 2.3-43.9 14-61.4 29.7-9.6 8.7-18 18.6-27.3 27.8-3.3 3.4-6.9 6.5-10.7 9.2-12.6 9.2-21.3 9.5-34.3 1.4-9.3-5.8-18.1-12.5-27.9-17.2-19.9-9.3-40.7-8-61.3-2.4a294 294 0 00-28.5 9.4c-26 10.1-40.9 30.7-50.3 55.6-5.6 15-9.7 30.6-14.2 46-5.6 20-18.5 34-34.7 46a596.9 596.9 0 00-38.6 31.3c-9.9 8.6-16.9 19.4-14.5 33.2 1 5.9 3.8 12.5 8 16.6a51.1 51.1 0 0036 14.4c23.3.1 46.7.2 70-.8 18-.7 28.3 8.3 35.5 23.4 5.7 12 11.7 23.8 18.1 35.3 15.2 27.2 51 23.3 68.8 8 12.8-11.1 23.2-25.2 34-38.5 14-17.3 32-27.2 53.8-27.9 18.5-.6 37.2.8 55.6 3 25.1 3 50.1 3.2 74.8-1.8 31.7-6.5 57.8-21.8 72.5-52.2a155.5 155.5 0 0014.4-86.6c-1.5-13.6.2-27.8 1.7-41.6 1.8-16.4 15.6-25.5 33.4-22.6 15.6 2.5 30.6 8 46 11.7 15 3.7 30.3 4.7 45.5 1.4 13.1-2.9 23.8-16 24.8-30.7.4-7.1.1-14.5-.7-21.6-4-34-7.5-68.2-12.7-102-4.3-27.8-10.6-55.3-28.2-78.5-13.2-17.4-27.6-33.6-50.9-35.9-10.5-1-21.4 1.7-32.1 2.7M-44.4 573.1c-10.8 3.3-21.5 6.8-32.3 9.9-23.6 6.7-30.7 31.3-24.6 50.4 8 24.7 24.7 40.8 47 52.5 26.1 13.8 54.3 19.7 83 24.3 18.6 3 37 7.4 55.6 9.7 33 4.1 61-5.8 81.7-32.6 8.5-10.9 18.5-20.8 21.4-35.1 4.4-21.3-8.6-47.4-29-59.7-18-10.9-37.8-11.5-57.7-11.5-19.6 0-38.8-1.2-58-5.4C26 572 8.7 571.5-8.3 571c-11.7-.5-23.5 1.3-35.2 2M370-133.2c-37.3 17.3-54.5 49.5-50.2 91 2 19 8.7 35.4 21.3 48.5a55.3 55.3 0 0062.5 13.9c35-13.6 59-38.3 70-75.3 9.4-31.8-3.9-55-30.3-68.4-23-11.7-47-15.2-72.3-9.8M1061.9-285.4c-12.2 5.4-25.4 9.3-36.3 16.6a125 125 0 00-56 96.5c-1.7 19.7 5.4 39 15.6 56.1 21.5 36 48.5 67.4 82.3 92.5a75.3 75.3 0 0052.1 15 59.5 59.5 0 0051.4-39.5c7.9-19.4 5.1-38-7.8-54.2-18-22.4-19.3-47.5-15-74.3 2.6-16.2 5.7-32.7 5.5-49a56 56 0 00-45-56.5 114 114 0 00-45.9-3.4" stroke="#272A3E" stroke-width="2" stroke-miterlimit="10" stroke-linecap="round" stroke-linejoin="round"/><path d="M1461.1 87.8a113.7 113.7 0 00-62.8 42.4c-12 15.3-21.9 31.6-18.3 52.5 3.6 20.5 23.3 37.4 44.8 34.5a62 62 0 0042.7-26.8c14.5-19.4 25-41.1 28.7-65.5.8-5.5 1.2-11.2.9-16.8-.7-12-7.7-22-23.3-21.7-4 0-7.8.8-11.7 1.3M866.9 166.9a44.3 44.3 0 00-25.5 27.7c-7.2 21.7-.9 42.1 27.7 45.8 20.9 2.7 44.5-7.8 44.2-32.8a41.8 41.8 0 00-45.5-40.8" stroke="#272A3E" stroke-width="2" stroke-miterlimit="10" stroke-linecap="round" stroke-linejoin="round"/><path d="M1337.1-631.2c-29.2 13.4-41 38.3-40.4 68.2.5 24.7 5.6 49.3 8.6 74a96.2 96.2 0 01-10 56.3c-12.6 24.6-26.8 48.4-39 73.1-15 30.1-22.5 62-16 95.6a80 80 0 0026.2 46.3c28.4 24.8 62.8 37 97.8 48 18.4 5.8 37.2 10.7 55.3 17a55.8 55.8 0 0137.2 37.8c9.7 32.9 14.2 66 2.5 99.4a68.5 68.5 0 01-27.3 35c-22.8 15.2-45.8 30.2-68.3 46a209.5 209.5 0 00-53 53.4 66.3 66.3 0 00-7.4 60.3c8.8 27.9 21.7 54.6 43.2 75.7a135 135 0 0096.8 40.2c42.4.2 67.8-18.6 82.4-59.3 6.9-19.4 13.7-38.9 19.3-58.7 11.9-42 39.3-69.8 78.2-87.4 19.9-9 39.8-18 60-26 8.5-3.4 17.8-4.8 26.8-6.4 19.3-3.3 38.8-6 58.1-9.2 21.7-3.7 33.5-18 38.6-38.3 5.3-20.5 2.2-40.7-3.3-60.8-5.5-20.4-13-39.8-28.6-54.6-39.1-37-84.5-60.3-139.1-65.2-30.5-2.8-60.6-8.6-90.6-14.4-17.6-3.4-33-11.8-39.3-30.5-2.3-6.5-4.6-13.2-5.4-20-3.7-32.1-14-62.4-24.4-92.7-9-26.2-15.5-53-10.4-80.6a238 238 0 0117-53.3c13.1-29.3 19.3-59 12.1-90.5-4.3-19.1-17-33-33-43.2a246.4 246.4 0 00-85-35 99 99 0 00-38.6-.2M1169.9 159.2c-35.4 18.6-51.5 50.4-60.4 87.4a224.7 224.7 0 00-5 56.8c.4 24.2 1.7 48.6-3.7 72.5-4 18.3-11 35.5-22.6 50-12.5 15.5-26.7 29.6-39.7 44.6-12 14-24.4 28-35 42.9a410.3 410.3 0 01-64 67.9c-26.7 23.6-35.7 54.8-38.2 88.6-1.6 20.5 1.1 40 13.5 57.7 11.4 16.3 28.5 22 45.3 28.7 22.4 9 38.9 22.5 38.3 48.6-.3 10.9-3.1 21.7-5.8 32.3-4.3 17.2-8.8 34.4-5.1 52a148.5 148.5 0 0029.6 64.4c9 11.1 20 11.6 28.2.3 9-12.2 15.6-26 23.1-39.1 3.4-6 6-12.3 9.7-18 13.5-20.4 32.4-28.7 60.3-23.2 12.7 2.5 25.6 4.7 38.3 7.2 29.7 5.7 55.8-3 78.1-21.8 21-17.7 40.5-37.3 60.3-56.5 20.4-19.8 37.3-43.2 60.8-59.7 11.2-7.8 22.8-14.9 33.7-23 23.8-17.9 32.5-44 37.5-71.7 4.4-24.6-1.8-48.4-7.8-72-3.3-13.4-7.2-26.7-9.7-40.3a345.6 345.6 0 01-5-40.8c-.9-14-.5-28.3-.4-42.4.2-26.3-.9-52.3-14.3-76.3-11-19.9-27.9-33.4-47.9-42-37.9-16.6-63.5-45.2-83.7-79.9A250 250 0 001233 199c-12.4-11.7-25.5-22.7-38.6-33.7a26 26 0 00-23.4-6.1" stroke="#272A3E" stroke-width="2" stroke-miterlimit="10" stroke-linecap="round" stroke-linejoin="round"/></svg>
