<svg width="1440" height="378" fill="none" xmlns="http://www.w3.org/2000/svg"><path opacity=".2" d="M-106.78 151.31c-43.93 17.09-54.44-25.63-80.22-35.88v261.44c0 3.42 2.87 5.13 5.73 5.13H1980.7c3.82 0 5.73-2.56 5.73-5.13v-252.9c-99.31 0-78.3 61.52-129.87 76.9-61.31 18.28-55.93-87.5-159.47-31.62-60.16 32.47-68.76-141.83-111.73-144.4-36.21-2.15-31.51 66.65-79.26 110.23-47.75 43.57-38.2 92.27-86.9 100.82-48.7 8.54-71.62-35.03-114.59-35.89-42.97-.85-59.21 55.54-99.31 53.83-40.11-1.7 5.36-90.19-44.3-109.84-49.66-19.65-44.67-135.15-80-136-35.33-.85-49.5 64.5-84 67-44.5 3.22-43.35 111-82.5 111S847.2-1.63 809 100.9c-29.99 80.49-71.62-9.4-106 14.53-34.38 23.92-48.7-64.08-93.58-62.38-44.89 1.71-74.7 114.78-107.91 106.8-39.15-9.4-42.02 53.83-79.26 53.83s-54.43-110.22-103.13-98.25C270.42 127.39 226.7.93 187.34.93c-36.3 0-68.76 120.48-127.97 107.66-38.1-8.25-70.66 108.51-98.35 100.82-27.7-7.69-23.88-75.19-67.8-58.1z" fill="url(#paint0_linear)"/><path d="M-187 115.5c25.78 10.26 36.29 53 80.22 35.9 43.92-17.09 40.1 50.45 67.8 58.14 27.69 7.7 60.25-109.13 98.35-100.88C118.57 121.5 151.05.94 187.34.94c39.37 0 83.07 126.53 131.78 114.56 48.7-11.97 65.89 98.32 103.13 98.32 37.24 0 40.1-63.27 79.26-53.86 33.2 7.97 63.02-105.16 107.9-106.87 44.89-1.7 59.21 86.35 93.59 62.41 34.38-23.94 76.01 66 106-14.53C847.2-1.63 875.35 186 914.5 186c39.15 0 38.37-110.5 83-110.5 29.5 0 49.67-68.36 85-67.5 35.33.85 28.84 117.34 78.5 137 49.66 19.66 4.19 107.3 44.3 109 40.1 1.71 56.34-54.72 99.31-53.86 42.97.86 65.89 44.46 114.59 35.9 48.7-8.54 39.15-57.27 86.9-100.88 47.75-43.6 43.05-112.44 79.26-110.28 42.97 2.56 51.57 176.97 111.73 144.48 103.54-55.9 98.16 49.93 159.47 31.63 51.57-15.38 30.56-76.94 129.87-76.94" stroke="#5275FF" stroke-width="1.5"/><path opacity=".2" d="M-87.69 286.91c-24.83 30.6-62.07-33.9-99.31-33.9v124.03c0 3.3 2.87 4.96 5.73 4.96h2160.06c2.87 0 7.64 0 7.64-6.62V173.63c-14.32 17.37-73.25 7.19-129.87 34.73-84.99 41.34-84.99-48.79-139.42-48.79-54.43 0-69.71-90.95-120.32-90.95-66.85 0-74.49 124.86-192.9 124.86-118.41 0-90.72 120.72-182.39 120.72-91.67 0-104.83-255.7-153.53-255.7-78.88 0-48 181.5-125.31 206.91-77.31 25.41-121.28-114.1-230.14-52.92-57.34 32.23-37.24-97.57-99.31-97.57-49.66 0-68.67 115.64-120.24 123.08-51.08 7.37-20.9-123.08-85-123.08-23 0-39 88.08-211 45.08-37.2-9.3-69.83 32.65-122.35 71.51-48.18 35.65-117.38 0-162.34 55.4z" fill="url(#paint1_linear)"/><path d="M-187 253.5c37.24 0 74.48 64.63 99.31 33.97 44.96-55.52 114.16-19.8 162.34-55.52 52.52-38.95 83.6-83.06 120.35-72.1 200 59.65 172.5-44.74 212-44.74 64.1 0 35.42 130.28 86.5 122.89 51.57-7.46 70.08-122.9 119.74-122.9 62.07 0 41.97 130.09 99.3 97.79 108.87-61.32 153.34 73.95 230.15 53.03S988.6 58.5 1067.5 58.5c48.7 0 62.36 256.31 154.03 256.31s63.98-120.98 182.39-120.98S1529.97 68.7 1596.82 68.7c50.61 0 65.89 91.15 120.32 91.15 54.43 0 54.43 90.33 139.42 48.9 56.62-27.6 115.55-17.4 129.87-34.8" stroke="#14C393" stroke-width="1.5"/><circle cx="408" cy="116" r="5.25" fill="#181B2B" stroke="#14C393" stroke-width="1.5"/><circle cx="1082.68" cy="7.68" r="5.93" fill="#181B2B" stroke="#5275FF" stroke-width="1.5"/><defs><linearGradient id="paint0_linear" x1="899.72" y1="-7.61" x2="899.72" y2="382" gradientUnits="userSpaceOnUse"><stop stop-color="#5266FF"/><stop offset="1" stop-color="#181B2B" stop-opacity="0"/></linearGradient><linearGradient id="paint1_linear" x1="899.72" y1="30.58" x2="899.72" y2="382" gradientUnits="userSpaceOnUse"><stop stop-color="#14C393"/><stop offset="1" stop-color="#181B2B" stop-opacity="0"/></linearGradient></defs></svg>
