<svg width="129" height="26" fill="none" xmlns="http://www.w3.org/2000/svg"><path d="M0 17c0-.6.2-1 .5-1.4.3-.3.7-.5 1.2-.5.6 0 1 .2 1.3.5.3.3.5.8.5 1.4 0 .6-.2 1-.5 1.4-.3.3-.7.5-1.3.5-.5 0-1-.2-1.2-.5-.3-.3-.5-.8-.5-1.4zM6 22.6a7.3 7.3 0 0 0 3.6 1c.8 0 1.4-.2 2-.6.5-.4.8-1 .8-1.9 0-.8-.2-1.4-.5-1.9L10.6 18 9 17l-1.6-1.2c-.5-.5-1-1-1.2-1.6-.4-.7-.5-1.5-.5-2.4C5.7 10 6 9 6.9 8.2c.8-.8 2-1.2 3.4-1.2 1 0 1.7.1 2.4.3l1.8.7-.6 2.2a7 7 0 0 0-3.3-.8c-.8 0-1.5.2-1.8.5-.4.4-.6 1-.6 1.7 0 .6.1 1.1.5 1.6a36 36 0 0 0 2.9 2.2l1.5 1.3c.5.5 1 1 1.3 1.7.3.7.5 1.6.5 2.6 0 .7-.1 1.4-.4 2a4.2 4.2 0 0 1-2.5 2.6c-.6.3-1.4.4-2.2.4-1 0-2-.1-2.7-.3l-1.9-.8.8-2.3zM17.9 8.5c.6-.4 1.4-.7 2.4-1l3-.3c1 0 1.8.1 2.4.4.6.3 1 .7 1.4 1.3.3.5.5 1 .6 1.7l.2 2.1a98.7 98.7 0 0 1-.2 8.2 33.5 33.5 0 0 0 .4 4.7h-2l-.5-2.1h-.2c-.3.6-.8 1.2-1.5 1.6-.6.5-1.5.7-2.7.7-1.2 0-2.2-.4-3-1.3-.8-1-1.2-2.2-1.2-3.8 0-1 .1-1.9.5-2.6.3-.7.8-1.3 1.4-1.7.6-.4 1.3-.7 2.2-1l2.8-.2h1.4l.1-2c0-1.3-.2-2.3-.6-2.8-.4-.6-1-.9-2.1-.9a8 8 0 0 0-4 1.1l-.8-2zm7.4 8.8a13.1 13.1 0 0 0-3 0c-.5.2-1 .3-1.4.6-.4.2-.7.6-1 1a3 3 0 0 0-.3 1.5c0 1 .2 1.7.7 2.3.4.5 1 .8 1.7.8 1 0 1.7-.3 2.2-.8.6-.4 1-1 1.1-1.6v-3.8zM40.8 25.6v-11c0-1.9-.2-3.2-.6-4-.4-.8-1.1-1.2-2.2-1.2-.9 0-1.6.3-2.2.8-.7.6-1 1.3-1.4 2.2v13.2H32V7.5h1.8l.5 1.9c.5-.7 1.1-1.2 1.9-1.7a5 5 0 0 1 2.7-.7c.7 0 1.4.1 2 .4.5.2 1 .5 1.4 1l.8 2.1c.2 1 .3 2 .3 3.3v11.8h-2.5zM45.5 7.5h2V3.9l2.6-.9v4.5h3.7v2.3h-3.7v10.8c0 1 .1 1.8.3 2.3.3.5.7.7 1.2.7s.9 0 1.2-.2c.4 0 .7-.2 1.1-.4l.5 2.1a7.9 7.9 0 0 1-3.6.9c-1.2 0-2-.4-2.5-1.2-.5-.8-.7-2-.7-3.8V9.8h-2.1V7.5zM56.7 2c0-.6.2-1 .5-1.5.3-.3.7-.5 1.2-.5s1 .2 1.3.5c.3.4.5.9.5 1.5 0 .5-.2 1-.5 1.3-.3.3-.8.5-1.3.5s-.9-.2-1.2-.5c-.3-.3-.5-.8-.5-1.3zm.5 5.5h2.5v18h-2.5v-18zM72.4 25.6V14.8v-2.5l-.4-1.7a2 2 0 0 0-.8-1L70 9.5c-.8 0-1.4.3-2 1-.5.6-.9 1.3-1.1 2.1v13h-2.5v-18H66l.4 1.9h.1c.5-.7 1-1.3 1.8-1.7.6-.5 1.5-.7 2.5-.7s1.6.2 2.2.6a4 4 0 0 1 1.3 2.1A4.8 4.8 0 0 1 78.8 7c.8 0 1.4.1 2 .3.5.2 1 .6 1.3 1.1.3.5.6 1.2.7 2 .2 1 .3 2 .3 3.3v11.9h-2.5V14c0-1.6-.2-2.8-.5-3.6-.3-.7-1-1.1-2-1.1-.9 0-1.6.3-2 .8-.6.6-1 1.4-1.2 2.3v13h-2.5zM97.3 24.3c-.5.6-1.2 1-2.1 1.3-.9.3-1.8.4-2.7.4a5.5 5.5 0 0 1-4.8-2.6c-.6-.8-1-1.8-1.2-3-.2-1.1-.3-2.4-.3-3.9 0-3 .5-5.4 1.6-7 1-1.7 2.6-2.5 4.6-2.5.7 0 1.3.1 2 .3.6.1 1.2.5 1.7 1s.9 1.2 1.2 2.1c.3 1 .5 2.1.5 3.6a18 18 0 0 1-.2 2.8h-8.8c0 1 0 2 .2 2.8.2.9.4 1.6.8 2.2.3.6.8 1 1.3 1.4.6.3 1.2.4 2 .4a5 5 0 0 0 3.3-1.2l1 2zm-2-9.7c.1-1.8-.1-3.1-.7-4a2.5 2.5 0 0 0-2.1-1.2c-1.1 0-2 .4-2.6 1.2-.6.9-1 2.2-1.1 4h6.6zM110.2 25.6v-11c0-1.9-.2-3.2-.6-4-.4-.8-1.2-1.2-2.2-1.2-1 0-1.7.3-2.3.8-.6.6-1 1.3-1.3 2.2v13.2h-2.5V7.5h1.8l.4 1.9h.1c.5-.7 1-1.2 1.8-1.7a5 5 0 0 1 2.7-.7c.8 0 1.4.1 2 .4.6.2 1 .5 1.4 1 .4.6.7 1.3.9 2.1.2 1 .3 2 .3 3.3v11.8h-2.5zM114.8 7.5h2.1V3.9l2.5-.9v4.5h3.8v2.3h-3.8v10.8c0 1 .1 1.8.4 2.3.2.5.6.7 1.2.7.5 0 .9 0 1.2-.2.3 0 .7-.2 1-.4l.6 2.1a7.9 7.9 0 0 1-3.6.9c-1.2 0-2-.4-2.5-1.2-.5-.8-.8-2-.8-3.8V9.8h-2.1V7.5zM125.5 16.7c0-.6.2-1 .5-1.4.3-.3.7-.4 1.3-.4.5 0 1 .1 1.2.4.3.3.5.8.5 1.4 0 .6-.2 1.1-.5 1.4-.3.3-.7.5-1.2.5-.6 0-1-.2-1.3-.5-.3-.3-.5-.8-.5-1.4z" fill="#fff"/></svg>
